<?xml version="1.0" encoding="UTF-8"?>
<svg width="740px" height="68px" viewBox="0 0 740 68" version="1.1" xmlns="http://www.w3.org/2000/svg" xmlns:xlink="http://www.w3.org/1999/xlink">
    <!-- Generator: Sketch 55.2 (78181) - https://sketchapp.com -->
    <title>beauty stage</title>
    <desc>Created with Sketch.</desc>
    <g id="Drunk-Elephant_美麗台_1440" stroke="none" stroke-width="1" fill="none" fill-rule="evenodd">
        <g id="Drunkelephant_index_美麗台-Copy" transform="translate(-593.000000, -5729.000000)" fill="#FF27C8" fill-rule="nonzero">
            <g id="beauty-stage" transform="translate(593.000000, 5729.008000)">
                <g id="Group-15" transform="translate(0.000000, 3.992000)">
                    <path d="M28.12,22.704 C30.8506803,23.3440032 33.015992,24.6666566 34.616,26.672 C36.216008,28.6773434 37.016,31.0026534 37.016,33.648 C37.016,37.5306861 35.7253462,40.5599891 33.144,42.736 C30.5626538,44.9120109 26.8613574,46 22.04,46 L0.984,46 L0.984,0.752 L21.528,0.752 C26.136023,0.752 29.6986541,1.75465664 32.216,3.76 C34.7333459,5.76534336 35.992,8.62398144 35.992,12.336 C35.992,15.0666803 35.2666739,17.3386576 33.816,19.152 C32.3653261,20.9653424 30.4666784,22.1493306 28.12,22.704 Z M11.928,19.248 L19.096,19.248 C22.8933523,19.248 24.792,17.6266829 24.792,14.384 C24.792,11.1413171 22.8506861,9.52 18.968,9.52 L11.928,9.52 L11.928,19.248 Z M19.736,37.104 C23.7893536,37.104 25.816,35.4400166 25.816,32.112 C25.816,30.4906586 25.282672,29.2213379 24.216,28.304 C23.149328,27.3866621 21.6346765,26.928 19.672,26.928 L11.928,26.928 L11.928,37.104 L19.736,37.104 Z M78.696,27.184 C78.696,28.0800045 78.5893344,29.061328 78.376,30.128 L53.608,30.128 C53.7360006,32.8160134 54.4186605,34.7466608 55.656,35.92 C56.8933395,37.0933392 58.4719904,37.68 60.392,37.68 C62.0133414,37.68 63.357328,37.2746707 64.424,36.464 C65.490672,35.6533293 66.194665,34.6080064 66.536,33.328 L78.12,33.328 C77.6506643,35.8453459 76.6266746,38.0959901 75.048,40.08 C73.4693254,42.0640099 71.4640122,43.6213277 69.032,44.752 C66.5999878,45.8826723 63.8906816,46.448 60.904,46.448 C57.4053158,46.448 54.3013469,45.7120074 51.592,44.24 C48.8826531,42.7679926 46.7600077,40.6453472 45.224,37.872 C43.6879923,35.0986528 42.92,31.8560186 42.92,28.144 C42.92,24.3893146 43.6773258,21.1360138 45.192,18.384 C46.7066742,15.6319862 48.8293197,13.5200074 51.56,12.048 C54.2906803,10.5759926 57.4053158,9.84 60.904,9.84 C64.445351,9.84 67.5599866,10.5653261 70.248,12.016 C72.9360134,13.4666739 75.0159926,15.5039869 76.488,18.128 C77.9600074,20.7520131 78.696,23.7706496 78.696,27.184 Z M67.624,25.52 C67.6666669,23.1733216 67.0373398,21.4133392 65.736,20.24 C64.4346602,19.0666608 62.8240096,18.48 60.904,18.48 C58.8986566,18.48 57.2346733,19.0773274 55.912,20.272 C54.5893267,21.4666726 53.8426675,23.2159885 53.672,25.52 L67.624,25.52 Z M99.96,9.84 C102.69068,9.84 105.037324,10.4586605 107,11.696 C108.962676,12.9333395 110.413329,14.618656 111.352,16.752 L111.352,10.288 L122.232,10.288 L122.232,46 L111.352,46 L111.352,39.536 C110.413329,41.669344 108.962676,43.3546605 107,44.592 C105.037324,45.8293395 102.69068,46.448 99.96,46.448 C97.0159853,46.448 94.381345,45.7120074 92.056,44.24 C89.730655,42.7679926 87.8960067,40.6453472 86.552,37.872 C85.2079933,35.0986528 84.536,31.8560186 84.536,28.144 C84.536,24.3893146 85.2079933,21.1360138 86.552,18.384 C87.8960067,15.6319862 89.730655,13.5200074 92.056,12.048 C94.381345,10.5759926 97.0159853,9.84 99.96,9.84 Z M103.48,19.44 C101.133322,19.44 99.2453405,20.2079923 97.816,21.744 C96.3866595,23.2800077 95.672,25.4133197 95.672,28.144 C95.672,30.8746803 96.3866595,33.0079923 97.816,34.544 C99.2453405,36.0800077 101.133322,36.848 103.48,36.848 C105.784012,36.848 107.672,36.0586746 109.144,34.48 C110.616007,32.9013254 111.352,30.7893466 111.352,28.144 C111.352,25.4559866 110.616007,23.3333411 109.144,21.776 C107.672,20.2186589 105.784012,19.44 103.48,19.44 Z M167.304,10.288 L167.304,46 L156.296,46 L156.296,39.536 C155.272,41.6266771 153.746677,43.2906605 151.72,44.528 C149.693323,45.7653395 147.336013,46.384 144.648,46.384 C140.55198,46.384 137.298679,45.0186803 134.888,42.288 C132.477321,39.5573197 131.272,35.8026906 131.272,31.024 L131.272,10.288 L142.152,10.288 L142.152,29.68 C142.152,32.1120122 142.781327,33.9999933 144.04,35.344 C145.298673,36.6880067 146.994656,37.36 149.128,37.36 C151.346678,37.36 153.095994,36.656007 154.376,35.248 C155.656006,33.839993 156.296,31.8346797 156.296,29.232 L156.296,10.288 L167.304,10.288 Z M197.08,36.592 L197.08,46 L192.152,46 C187.970646,46 184.717345,44.9653437 182.392,42.896 C180.066655,40.8266563 178.904,37.4026906 178.904,32.624 L178.904,19.504 L174.104,19.504 L174.104,10.288 L178.904,10.288 L178.904,1.52 L189.848,1.52 L189.848,10.288 L197.016,10.288 L197.016,19.504 L189.848,19.504 L189.848,32.816 C189.848,34.224007 190.135997,35.2053306 190.712,35.76 C191.288003,36.3146694 192.25866,36.592 193.624,36.592 L197.08,36.592 Z M213.48,10.288 L222.056,32.176 L230.056,10.288 L242.152,10.288 L219.88,63.024 L207.848,63.024 L216.232,44.656 L201.256,10.288 L213.48,10.288 Z M295.112,33.264 C295.112,35.6533453 294.504006,37.8506566 293.288,39.856 C292.071994,41.8613434 290.280012,43.4613274 287.912,44.656 C285.543988,45.8506726 282.674684,46.448 279.304,46.448 C274.226641,46.448 270.04535,45.210679 266.76,42.736 C263.47465,40.261321 261.682668,36.8053555 261.384,32.368 L273.032,32.368 C273.202668,34.0746752 273.810661,35.4186618 274.856,36.4 C275.901339,37.3813382 277.234659,37.872 278.856,37.872 C280.264007,37.872 281.373329,37.4880038 282.184,36.72 C282.994671,35.9519962 283.4,34.9280064 283.4,33.648 C283.4,32.4959942 283.02667,31.5360038 282.28,30.768 C281.53333,29.9999962 280.605339,29.3706691 279.496,28.88 C278.386661,28.3893309 276.850676,27.8026701 274.888,27.12 C272.029319,26.1386618 269.693342,25.1893379 267.88,24.272 C266.066658,23.3546621 264.50934,21.9893424 263.208,20.176 C261.90666,18.3626576 261.256,16.0053478 261.256,13.104 C261.256,10.4159866 261.93866,8.09067648 263.304,6.128 C264.66934,4.16532352 266.557321,2.66133856 268.968,1.616 C271.378679,0.57066144 274.141318,0.048 277.256,0.048 C282.290692,0.048 286.290652,1.24265472 289.256,3.632 C292.221348,6.02134528 293.895998,9.30664576 294.28,13.488 L282.44,13.488 C282.226666,11.9946592 281.682671,10.810671 280.808,9.936 C279.933329,9.06132896 278.749341,8.624 277.256,8.624 C275.975994,8.624 274.941337,8.96532992 274.152,9.648 C273.362663,10.3306701 272.968,11.3333267 272.968,12.656 C272.968,13.722672 273.319996,14.6293296 274.024,15.376 C274.728004,16.1226704 275.613328,16.7306643 276.68,17.2 C277.746672,17.6693357 279.282657,18.266663 281.288,18.992 C284.189348,19.9733382 286.557324,20.9439952 288.392,21.904 C290.226676,22.8640048 291.805327,24.2613242 293.128,26.096 C294.450673,27.9306758 295.112,30.3199853 295.112,33.264 Z M335.704,0.752 L335.704,9.456 L323.416,9.456 L323.416,46 L312.408,46 L312.408,9.456 L300.248,9.456 L300.248,0.752 L335.704,0.752 Z M370.344,37.744 L353.384,37.744 L350.568,46 L339.048,46 L355.624,1.072 L368.232,1.072 L384.808,46 L373.16,46 L370.344,37.744 Z M367.528,29.424 L361.896,12.784 L356.2,29.424 L367.528,29.424 Z M412.216,0.304 C417.890695,0.304 422.562648,1.6906528 426.232,4.464 C429.901352,7.2373472 432.183996,10.9919763 433.08,15.728 L421.496,15.728 C420.727996,14.1066586 419.554675,12.8160048 417.976,11.856 C416.397325,10.8959952 414.498678,10.416 412.28,10.416 C408.823983,10.416 406.050677,11.578655 403.96,13.904 C401.869323,16.229345 400.824,19.3759802 400.824,23.344 C400.824,27.6533549 401.922656,30.9599885 404.12,33.264 C406.317344,35.5680115 409.442646,36.72 413.496,36.72 C416.09868,36.72 418.381324,36.0053405 420.344,34.576 C422.306676,33.1466595 423.693329,31.1093466 424.504,28.464 L410.68,28.464 L410.68,20.592 L433.656,20.592 L433.656,31.408 C432.802662,34.0533466 431.437343,36.5066554 429.56,38.768 C427.682657,41.0293446 425.282681,42.863993 422.36,44.272 C419.437319,45.680007 416.098685,46.384 412.344,46.384 C407.778644,46.384 403.78935,45.413343 400.376,43.472 C396.96265,41.530657 394.328009,38.8106842 392.472,35.312 C390.615991,31.8133158 389.688,27.8240224 389.688,23.344 C389.688,18.8639776 390.615991,14.8746842 392.472,11.376 C394.328009,7.87731584 396.951983,5.15734304 400.344,3.216 C403.736017,1.27465696 407.693311,0.304 412.216,0.304 Z M452.744,9.456 L452.744,18.928 L468.04,18.928 L468.04,27.184 L452.744,27.184 L452.744,37.232 L469.96,37.232 L469.96,46 L441.8,46 L441.8,0.752 L469.96,0.752 L469.96,9.456 L452.744,9.456 Z" id="BeautySTAGE"></path>
                </g>
                <path d="M549.624,39.76 L547.664,39.76 C548.84,42.056 549.96,44.856 550.52,47.04 C550.856,46.872 551.08,46.648 551.36,46.256 C552.2,45.024 552.648,39.704 552.984,24.808 L531.816,24.808 C530.808,26.096 529.744,27.272 528.68,28.28 L535.792,28.28 L535.792,25.648 L540.832,25.648 L540.832,28.28 L549.624,28.28 L549.624,39.76 Z M540.832,42.952 L544.024,42.672 C543.744,42 543.408,41.384 543.128,40.768 L546.432,39.76 L540.832,39.76 L540.832,42.952 Z M540.832,32.424 L540.832,35.728 L544.472,35.728 L544.472,32.424 L540.832,32.424 Z M532.152,35.728 L535.792,35.728 L535.792,32.424 L532.152,32.424 L532.152,35.728 Z M531.984,7.504 L531.984,11.76 L535.512,11.76 L535.512,7.504 L531.984,7.504 Z M540.16,7.504 L540.16,11.76 L543.744,11.76 L543.744,7.504 L540.16,7.504 Z M548.392,7.504 L548.392,11.76 L552.032,11.76 L552.032,7.504 L548.392,7.504 Z M535.288,19.544 L559.2,19.544 C559.2,19.544 559.144,21.448 559.144,22.232 C558.752,41.16 558.304,48.048 556.848,50.12 C555.728,51.688 554.664,52.248 553.152,52.528 C551.808,52.808 549.848,52.808 547.664,52.752 C547.608,51.688 547.328,50.4 546.992,49.168 L546.152,49.448 C546.04,48.832 545.872,48.104 545.704,47.376 C538.48,48.16 531.2,49 525.712,49.616 L525.096,44.184 C528.008,44.016 531.76,43.68 535.792,43.344 L535.792,39.76 L527.224,39.76 L527.224,29.456 C526.44,28.672 525.04,27.496 523.752,26.6 C523.864,28.056 523.864,29.512 523.864,30.968 C523.864,38.864 523.36,46.704 520.84,50.176 C520.056,51.296 518.88,52.08 517.48,52.36 C515.464,52.864 513.28,52.92 510.928,52.808 C510.928,50.68 510.424,48.328 509.304,46.424 C511.656,46.592 513.392,46.592 514.4,46.48 C515.128,46.368 515.632,46.088 516.08,45.528 C517.144,44.184 517.592,38.696 517.648,32.424 C515.632,35.056 513.448,37.464 511.432,39.256 C510.424,37.632 508.632,35.448 507.12,34.216 C510.76,31.808 514.792,27.272 517.256,22.96 C517.032,21.056 516.696,19.208 516.192,17.416 C514.736,18.928 513.224,20.272 511.712,21.504 C510.704,20.16 508.632,18.2 507.232,17.192 C509.416,15.568 511.544,13.496 513.56,11.2 C512.16,8.848 510.368,6.552 507.96,4.312 L512.552,0.784 C514.456,2.52 516.08,4.312 517.424,6.104 C518.544,4.424 519.496,2.744 520.336,1.064 L526.16,3.976 C524.648,6.776 522.856,9.52 520.84,12.096 C522.576,16.128 523.36,20.328 523.696,24.696 C526.216,22.512 528.456,19.712 530.08,16.744 L526.384,16.744 L526.384,2.632 L557.968,2.632 L557.968,16.744 L536.688,16.744 C536.296,17.696 535.792,18.648 535.288,19.544 Z M576.261333,11.032 L576.261333,17.64 L569.709333,17.64 L569.709333,4.984 L589.981333,4.984 C589.589333,3.92 589.085333,2.856 588.637333,2.016 L595.693333,2.84217094e-13 C596.589333,1.512 597.541333,3.36 598.101333,4.984 L618.037333,4.984 L618.037333,17.64 L611.205333,17.64 L611.205333,11.032 L576.261333,11.032 Z M609.021333,20.664 L614.565333,25.032 C612.325333,26.768 609.805333,28.56 607.341333,30.24 C609.525333,36.848 614.005333,42.392 620.445333,44.968 C618.933333,46.2 616.973333,48.776 616.021333,50.4 C609.301333,47.208 604.877333,41.216 602.133333,33.6 C601.573333,33.992 600.957333,34.328 600.397333,34.664 C601.965333,41.384 600.621333,47.824 597.765333,50.176 C595.805333,52.192 594.013333,52.752 591.101333,52.808 C589.869333,52.864 588.189333,52.808 586.565333,52.752 C586.453333,50.904 585.893333,48.272 584.773333,46.424 C586.733333,46.648 588.525333,46.704 589.813333,46.704 C591.157333,46.704 592.053333,46.536 592.837333,45.36 C593.789333,44.464 594.461333,42.392 594.461333,39.704 C588.077333,44.072 579.285333,48.216 571.837333,50.456 C571.109333,48.832 569.653333,46.424 568.365333,44.912 C577.213333,43.008 587.965333,38.192 593.509333,33.488 C593.285333,32.816 593.005333,32.088 592.669333,31.36 C587.069333,34.888 578.893333,38.528 572.509333,40.488 C571.781333,38.976 570.381333,36.736 569.205333,35.336 C576.093333,33.88 585.277333,30.352 590.149333,27.104 C589.645333,26.488 589.141333,25.872 588.581333,25.256 C583.709333,27.832 578.277333,29.736 573.013333,31.136 C572.397333,29.848 570.717333,27.216 569.597333,25.928 C575.925333,24.64 582.589333,22.512 587.629333,19.768 L577.997333,19.768 L577.997333,14.112 L609.301333,14.112 L609.301333,19.768 L596.869333,19.768 C595.861333,20.664 594.741333,21.56 593.509333,22.344 C595.693333,24.36 597.317333,26.712 598.437333,29.12 C602.301333,26.544 606.333333,23.352 609.021333,20.664 Z M642.378667,18.088 L637.394667,18.424 C636.722667,22.12 636.050667,25.76 635.322667,28.952 C636.722667,30.128 638.178667,31.36 639.634667,32.592 C641.538667,27.552 642.210667,22.456 642.378667,18.088 Z M651.562667,17.472 L648.594667,17.696 C648.426667,23.464 647.642667,30.408 644.730667,37.072 C647.418667,39.592 649.882667,41.888 651.506667,43.848 L647.138667,49.392 C645.738667,47.6 643.722667,45.416 641.426667,43.12 C639.074667,46.648 636.050667,49.952 631.906667,52.976 C630.898667,51.576 628.714667,49.392 627.202667,48.328 C631.402667,45.36 634.482667,42.056 636.666667,38.528 C633.810667,35.896 630.842667,33.208 628.322667,30.968 C629.218667,27.608 630.170667,23.352 630.954667,18.76 L627.818667,18.984 L627.202667,12.656 C628.658667,12.6 630.282667,12.544 631.962667,12.488 C632.522667,8.456 632.970667,4.424 633.194667,0.728 L639.802667,1.008 C639.466667,4.536 639.018667,8.344 638.402667,12.208 L642.434667,11.984 L642.434667,8.456 L648.650667,8.456 L648.650667,11.648 L651.562667,11.48 L651.562667,17.472 Z M679.618667,23.576 L679.618667,29.904 L668.418667,29.904 L668.418667,45.64 C668.418667,49.056 667.690667,50.736 665.338667,51.8 C663.098667,52.752 659.906667,52.92 655.538667,52.864 C655.202667,51.016 654.250667,48.272 653.298667,46.536 C656.098667,46.592 659.346667,46.592 660.242667,46.592 C661.194667,46.592 661.474667,46.368 661.474667,45.528 L661.474667,29.904 L649.714667,29.904 L649.714667,23.576 L661.474667,23.576 L661.474667,18.2 C663.882667,16.072 666.346667,12.936 668.306667,10.024 L651.898667,10.024 L651.898667,3.976 L672.674667,3.976 L674.242667,3.64 L678.722667,6.888 C676.090667,10.976 672.394667,15.68 668.418667,19.376 L668.418667,23.576 L679.618667,23.576 Z M731.4,11.48 L731.4,8.792 L728.096,8.792 L728.096,11.48 L731.4,11.48 Z M731.4,17.864 L731.4,15.176 L728.096,15.176 L728.096,17.864 L731.4,17.864 Z M713.256,15.176 L713.256,17.864 L716.56,17.864 L716.56,15.176 L713.256,15.176 Z M713.256,8.792 L713.256,11.48 L716.56,11.48 L716.56,8.792 L713.256,8.792 Z M723.896,15.176 L720.76,15.176 L720.76,17.864 L723.896,17.864 L723.896,15.176 Z M720.76,11.48 L723.896,11.48 L723.896,8.792 L720.76,8.792 L720.76,11.48 Z M736.944,4.928 L736.944,21.84 L707.88,21.84 L707.88,4.928 L715.608,4.928 L715.608,0.56 L720.76,0.56 L720.76,4.928 L723.896,4.928 L723.896,0.56 L729.048,0.56 L729.048,4.928 L736.944,4.928 Z M706.032,28.504 L706.032,23.8 L738.68,23.8 L738.68,28.504 L706.032,28.504 Z M707.656,31.416 L703.568,36.96 C702.672,35.448 701.272,33.432 699.872,31.472 L699.872,52.808 L693.88,52.808 L693.88,33.04 C692.312,34.664 690.8,36.12 689.232,37.296 C688.84,35.336 687.496,31.64 686.712,30.352 C691.416,27.216 695.952,21.728 698.752,15.904 L687.944,15.904 L687.944,9.912 L695.448,9.912 C694.496,7.952 692.984,5.656 691.528,3.864 L696.512,0.784 C698.36,2.856 700.32,5.768 701.216,7.784 L698.136,9.912 L701.944,9.912 L703.12,9.632 L706.48,12.096 C705.08,16.296 703.176,20.384 700.824,24.136 C703.008,26.264 706.648,30.24 707.656,31.416 Z M726.976,41.72 L717.792,41.72 C718.576,43.456 719.416,45.416 719.92,46.984 L724.904,46.984 C725.688,45.304 726.472,43.344 726.976,41.72 Z M715.104,34.384 L715.104,37.744 L729.496,37.744 L729.496,34.384 L715.104,34.384 Z M730.392,46.984 L739.24,46.984 L739.24,51.912 L705.36,51.912 L705.36,46.984 L714.208,46.984 C713.704,45.584 713.088,44.072 712.584,42.84 L716.168,41.72 L709.672,41.72 L709.672,30.464 L735.208,30.464 L735.208,41.72 L728.656,41.72 L733.024,42.952 C732.184,44.352 731.232,45.696 730.392,46.984 Z" id="獨家好禮"></path>
            </g>
        </g>
    </g>
</svg>