<?xml version="1.0" encoding="UTF-8"?>
<svg width="740px" height="68px" viewBox="0 0 740 68" version="1.1" xmlns="http://www.w3.org/2000/svg" xmlns:xlink="http://www.w3.org/1999/xlink">
    <!-- Generator: Sketch 55.2 (78181) - https://sketchapp.com -->
    <title>beauty STAGE</title>
    <desc>Created with Sketch.</desc>
    <g id="Drunk-Elephant_美麗台_1440" stroke="none" stroke-width="1" fill="none" fill-rule="evenodd">
        <g id="beauty-STAGE" transform="translate(0.184000, 0.008000)" fill="#FF27C8" fill-rule="nonzero">
            <path d="M22.272,13.832 C25.2160147,13.832 27.850655,14.5679926 30.176,16.04 C32.501345,17.5120074 34.3359933,19.6239862 35.68,22.376 C37.0240067,25.1280138 37.696,28.3813146 37.696,32.136 C37.696,35.8480186 37.0240067,39.0906528 35.68,41.864 C34.3359933,44.6373472 32.501345,46.7599926 30.176,48.232 C27.850655,49.7040074 25.2160147,50.44 22.272,50.44 C19.5413197,50.44 17.1946765,49.8213395 15.232,48.584 C13.2693235,47.3466605 11.8400045,45.661344 10.944,43.528 L10.944,49.992 L2.84217094e-14,49.992 L2.84217094e-14,2.632 L10.944,2.632 L10.944,20.744 C11.8400045,18.610656 13.2693235,16.9253395 15.232,15.688 C17.1946765,14.4506605 19.5413197,13.832 22.272,13.832 Z M18.752,23.432 C16.4479885,23.432 14.5600074,24.2106589 13.088,25.768 C11.6159926,27.3253411 10.88,29.4479866 10.88,32.136 C10.88,34.7813466 11.6159926,36.8933254 13.088,38.472 C14.5600074,40.0506746 16.4479885,40.84 18.752,40.84 C21.0986784,40.84 22.9866595,40.0720077 24.416,38.536 C25.8453405,36.9999923 26.56,34.8666803 26.56,32.136 C26.56,29.4053197 25.8453405,27.2720077 24.416,25.736 C22.9866595,24.1999923 21.0986784,23.432 18.752,23.432 Z M79.312,31.176 C79.312,32.0720045 79.2053344,33.053328 78.992,34.12 L54.224,34.12 C54.3520006,36.8080134 55.0346605,38.7386608 56.272,39.912 C57.5093395,41.0853392 59.0879904,41.672 61.008,41.672 C62.6293414,41.672 63.973328,41.2666707 65.04,40.456 C66.106672,39.6453293 66.810665,38.6000064 67.152,37.32 L78.736,37.32 C78.2666643,39.8373459 77.2426746,42.0879901 75.664,44.072 C74.0853254,46.0560099 72.0800122,47.6133277 69.648,48.744 C67.2159878,49.8746723 64.5066816,50.44 61.52,50.44 C58.0213158,50.44 54.9173469,49.7040074 52.208,48.232 C49.4986531,46.7599926 47.3760077,44.6373472 45.84,41.864 C44.3039923,39.0906528 43.536,35.8480186 43.536,32.136 C43.536,28.3813146 44.2933258,25.1280138 45.808,22.376 C47.3226742,19.6239862 49.4453197,17.5120074 52.176,16.04 C54.9066803,14.5679926 58.0213158,13.832 61.52,13.832 C65.061351,13.832 68.1759866,14.5573261 70.864,16.008 C73.5520134,17.4586739 75.6319926,19.4959869 77.104,22.12 C78.5760074,24.7440131 79.312,27.7626496 79.312,31.176 Z M68.24,29.512 C68.2826669,27.1653216 67.6533398,25.4053392 66.352,24.232 C65.0506602,23.0586608 63.4400096,22.472 61.52,22.472 C59.5146566,22.472 57.8506733,23.0693274 56.528,24.264 C55.2053267,25.4586726 54.4586675,27.2079885 54.288,29.512 L68.24,29.512 Z M100.576,13.832 C103.30668,13.832 105.653324,14.4506605 107.616,15.688 C109.578676,16.9253395 111.029329,18.610656 111.968,20.744 L111.968,14.28 L122.848,14.28 L122.848,49.992 L111.968,49.992 L111.968,43.528 C111.029329,45.661344 109.578676,47.3466605 107.616,48.584 C105.653324,49.8213395 103.30668,50.44 100.576,50.44 C97.6319853,50.44 94.997345,49.7040074 92.672,48.232 C90.346655,46.7599926 88.5120067,44.6373472 87.168,41.864 C85.8239933,39.0906528 85.152,35.8480186 85.152,32.136 C85.152,28.3813146 85.8239933,25.1280138 87.168,22.376 C88.5120067,19.6239862 90.346655,17.5120074 92.672,16.04 C94.997345,14.5679926 97.6319853,13.832 100.576,13.832 Z M104.096,23.432 C101.749322,23.432 99.8613405,24.1999923 98.432,25.736 C97.0026595,27.2720077 96.288,29.4053197 96.288,32.136 C96.288,34.8666803 97.0026595,36.9999923 98.432,38.536 C99.8613405,40.0720077 101.749322,40.84 104.096,40.84 C106.400012,40.84 108.288,40.0506746 109.76,38.472 C111.232007,36.8933254 111.968,34.7813466 111.968,32.136 C111.968,29.4479866 111.232007,27.3253411 109.76,25.768 C108.288,24.2106589 106.400012,23.432 104.096,23.432 Z M167.92,14.28 L167.92,49.992 L156.912,49.992 L156.912,43.528 C155.888,45.6186771 154.362677,47.2826605 152.336,48.52 C150.309323,49.7573395 147.952013,50.376 145.264,50.376 C141.16798,50.376 137.914679,49.0106803 135.504,46.28 C133.093321,43.5493197 131.888,39.7946906 131.888,35.016 L131.888,14.28 L142.768,14.28 L142.768,33.672 C142.768,36.1040122 143.397327,37.9919933 144.656,39.336 C145.914673,40.6800067 147.610656,41.352 149.744,41.352 C151.962678,41.352 153.711994,40.648007 154.992,39.24 C156.272006,37.831993 156.912,35.8266797 156.912,33.224 L156.912,14.28 L167.92,14.28 Z M197.696,40.584 L197.696,49.992 L192.768,49.992 C188.586646,49.992 185.333345,48.9573437 183.008,46.888 C180.682655,44.8186563 179.52,41.3946906 179.52,36.616 L179.52,23.496 L174.72,23.496 L174.72,14.28 L179.52,14.28 L179.52,5.512 L190.464,5.512 L190.464,14.28 L197.632,14.28 L197.632,23.496 L190.464,23.496 L190.464,36.808 C190.464,38.216007 190.751997,39.1973306 191.328,39.752 C191.904003,40.3066694 192.87466,40.584 194.24,40.584 L197.696,40.584 Z M214.096,14.28 L222.672,36.168 L230.672,14.28 L242.768,14.28 L220.496,67.016 L208.464,67.016 L216.848,48.648 L201.872,14.28 L214.096,14.28 Z M295.728,37.256 C295.728,39.6453453 295.120006,41.8426566 293.904,43.848 C292.687994,45.8533434 290.896012,47.4533274 288.528,48.648 C286.159988,49.8426726 283.290684,50.44 279.92,50.44 C274.842641,50.44 270.66135,49.202679 267.376,46.728 C264.09065,44.253321 262.298668,40.7973555 262,36.36 L273.648,36.36 C273.818668,38.0666752 274.426661,39.4106618 275.472,40.392 C276.517339,41.3733382 277.850659,41.864 279.472,41.864 C280.880007,41.864 281.989329,41.4800038 282.8,40.712 C283.610671,39.9439962 284.016,38.9200064 284.016,37.64 C284.016,36.4879942 283.64267,35.5280038 282.896,34.76 C282.14933,33.9919962 281.221339,33.3626691 280.112,32.872 C279.002661,32.3813309 277.466676,31.7946701 275.504,31.112 C272.645319,30.1306618 270.309342,29.1813379 268.496,28.264 C266.682658,27.3466621 265.12534,25.9813424 263.824,24.168 C262.52266,22.3546576 261.872,19.9973478 261.872,17.096 C261.872,14.4079866 262.55466,12.0826765 263.92,10.12 C265.28534,8.15732352 267.173321,6.65333856 269.584,5.608 C271.994679,4.56266144 274.757318,4.04 277.872,4.04 C282.906692,4.04 286.906652,5.23465472 289.872,7.624 C292.837348,10.0133453 294.511998,13.2986458 294.896,17.48 L283.056,17.48 C282.842666,15.9866592 282.298671,14.802671 281.424,13.928 C280.549329,13.053329 279.365341,12.616 277.872,12.616 C276.591994,12.616 275.557337,12.9573299 274.768,13.64 C273.978663,14.3226701 273.584,15.3253267 273.584,16.648 C273.584,17.714672 273.935996,18.6213296 274.64,19.368 C275.344004,20.1146704 276.229328,20.7226643 277.296,21.192 C278.362672,21.6613357 279.898657,22.258663 281.904,22.984 C284.805348,23.9653382 287.173324,24.9359952 289.008,25.896 C290.842676,26.8560048 292.421327,28.2533242 293.744,30.088 C295.066673,31.9226758 295.728,34.3119853 295.728,37.256 Z M336.32,4.744 L336.32,13.448 L324.032,13.448 L324.032,49.992 L313.024,49.992 L313.024,13.448 L300.864,13.448 L300.864,4.744 L336.32,4.744 Z M370.96,41.736 L354,41.736 L351.184,49.992 L339.664,49.992 L356.24,5.064 L368.848,5.064 L385.424,49.992 L373.776,49.992 L370.96,41.736 Z M368.144,33.416 L362.512,16.776 L356.816,33.416 L368.144,33.416 Z M412.832,4.296 C418.506695,4.296 423.178648,5.6826528 426.848,8.456 C430.517352,11.2293472 432.799996,14.9839763 433.696,19.72 L422.112,19.72 C421.343996,18.0986586 420.170675,16.8080048 418.592,15.848 C417.013325,14.8879952 415.114678,14.408 412.896,14.408 C409.439983,14.408 406.666677,15.570655 404.576,17.896 C402.485323,20.221345 401.44,23.3679802 401.44,27.336 C401.44,31.6453549 402.538656,34.9519885 404.736,37.256 C406.933344,39.5600115 410.058646,40.712 414.112,40.712 C416.71468,40.712 418.997324,39.9973405 420.96,38.568 C422.922676,37.1386595 424.309329,35.1013466 425.12,32.456 L411.296,32.456 L411.296,24.584 L434.272,24.584 L434.272,35.4 C433.418662,38.0453466 432.053343,40.4986554 430.176,42.76 C428.298657,45.0213446 425.898681,46.855993 422.976,48.264 C420.053319,49.672007 416.714685,50.376 412.96,50.376 C408.394644,50.376 404.40535,49.405343 400.992,47.464 C397.57865,45.522657 394.944009,42.8026842 393.088,39.304 C391.231991,35.8053158 390.304,31.8160224 390.304,27.336 C390.304,22.8559776 391.231991,18.8666842 393.088,15.368 C394.944009,11.8693158 397.567983,9.14934304 400.96,7.208 C404.352017,5.26665696 408.309311,4.296 412.832,4.296 Z M453.36,13.448 L453.36,22.92 L468.656,22.92 L468.656,31.176 L453.36,31.176 L453.36,41.224 L470.576,41.224 L470.576,49.992 L442.416,49.992 L442.416,4.744 L470.576,4.744 L470.576,13.448 L453.36,13.448 Z" id="beautySTAGE"></path>
            <path d="M549.44,39.76 L547.48,39.76 C548.656,42.056 549.776,44.856 550.336,47.04 C550.672,46.872 550.896,46.648 551.176,46.256 C552.016,45.024 552.464,39.704 552.8,24.808 L531.632,24.808 C530.624,26.096 529.56,27.272 528.496,28.28 L535.608,28.28 L535.608,25.648 L540.648,25.648 L540.648,28.28 L549.44,28.28 L549.44,39.76 Z M540.648,42.952 L543.84,42.672 C543.56,42 543.224,41.384 542.944,40.768 L546.248,39.76 L540.648,39.76 L540.648,42.952 Z M540.648,32.424 L540.648,35.728 L544.288,35.728 L544.288,32.424 L540.648,32.424 Z M531.968,35.728 L535.608,35.728 L535.608,32.424 L531.968,32.424 L531.968,35.728 Z M531.8,7.504 L531.8,11.76 L535.328,11.76 L535.328,7.504 L531.8,7.504 Z M539.976,7.504 L539.976,11.76 L543.56,11.76 L543.56,7.504 L539.976,7.504 Z M548.208,7.504 L548.208,11.76 L551.848,11.76 L551.848,7.504 L548.208,7.504 Z M535.104,19.544 L559.016,19.544 C559.016,19.544 558.96,21.448 558.96,22.232 C558.568,41.16 558.12,48.048 556.664,50.12 C555.544,51.688 554.48,52.248 552.968,52.528 C551.624,52.808 549.664,52.808 547.48,52.752 C547.424,51.688 547.144,50.4 546.808,49.168 L545.968,49.448 C545.856,48.832 545.688,48.104 545.52,47.376 C538.296,48.16 531.016,49 525.528,49.616 L524.912,44.184 C527.824,44.016 531.576,43.68 535.608,43.344 L535.608,39.76 L527.04,39.76 L527.04,29.456 C526.256,28.672 524.856,27.496 523.568,26.6 C523.68,28.056 523.68,29.512 523.68,30.968 C523.68,38.864 523.176,46.704 520.656,50.176 C519.872,51.296 518.696,52.08 517.296,52.36 C515.28,52.864 513.096,52.92 510.744,52.808 C510.744,50.68 510.24,48.328 509.12,46.424 C511.472,46.592 513.208,46.592 514.216,46.48 C514.944,46.368 515.448,46.088 515.896,45.528 C516.96,44.184 517.408,38.696 517.464,32.424 C515.448,35.056 513.264,37.464 511.248,39.256 C510.24,37.632 508.448,35.448 506.936,34.216 C510.576,31.808 514.608,27.272 517.072,22.96 C516.848,21.056 516.512,19.208 516.008,17.416 C514.552,18.928 513.04,20.272 511.528,21.504 C510.52,20.16 508.448,18.2 507.048,17.192 C509.232,15.568 511.36,13.496 513.376,11.2 C511.976,8.848 510.184,6.552 507.776,4.312 L512.368,0.784 C514.272,2.52 515.896,4.312 517.24,6.104 C518.36,4.424 519.312,2.744 520.152,1.064 L525.976,3.976 C524.464,6.776 522.672,9.52 520.656,12.096 C522.392,16.128 523.176,20.328 523.512,24.696 C526.032,22.512 528.272,19.712 529.896,16.744 L526.2,16.744 L526.2,2.632 L557.784,2.632 L557.784,16.744 L536.504,16.744 C536.112,17.696 535.608,18.648 535.104,19.544 Z M576.077333,11.032 L576.077333,17.64 L569.525333,17.64 L569.525333,4.984 L589.797333,4.984 C589.405333,3.92 588.901333,2.856 588.453333,2.016 L595.509333,2.84217094e-13 C596.405333,1.512 597.357333,3.36 597.917333,4.984 L617.853333,4.984 L617.853333,17.64 L611.021333,17.64 L611.021333,11.032 L576.077333,11.032 Z M608.837333,20.664 L614.381333,25.032 C612.141333,26.768 609.621333,28.56 607.157333,30.24 C609.341333,36.848 613.821333,42.392 620.261333,44.968 C618.749333,46.2 616.789333,48.776 615.837333,50.4 C609.117333,47.208 604.693333,41.216 601.949333,33.6 C601.389333,33.992 600.773333,34.328 600.213333,34.664 C601.781333,41.384 600.437333,47.824 597.581333,50.176 C595.621333,52.192 593.829333,52.752 590.917333,52.808 C589.685333,52.864 588.005333,52.808 586.381333,52.752 C586.269333,50.904 585.709333,48.272 584.589333,46.424 C586.549333,46.648 588.341333,46.704 589.629333,46.704 C590.973333,46.704 591.869333,46.536 592.653333,45.36 C593.605333,44.464 594.277333,42.392 594.277333,39.704 C587.893333,44.072 579.101333,48.216 571.653333,50.456 C570.925333,48.832 569.469333,46.424 568.181333,44.912 C577.029333,43.008 587.781333,38.192 593.325333,33.488 C593.101333,32.816 592.821333,32.088 592.485333,31.36 C586.885333,34.888 578.709333,38.528 572.325333,40.488 C571.597333,38.976 570.197333,36.736 569.021333,35.336 C575.909333,33.88 585.093333,30.352 589.965333,27.104 C589.461333,26.488 588.957333,25.872 588.397333,25.256 C583.525333,27.832 578.093333,29.736 572.829333,31.136 C572.213333,29.848 570.533333,27.216 569.413333,25.928 C575.741333,24.64 582.405333,22.512 587.445333,19.768 L577.813333,19.768 L577.813333,14.112 L609.117333,14.112 L609.117333,19.768 L596.685333,19.768 C595.677333,20.664 594.557333,21.56 593.325333,22.344 C595.509333,24.36 597.133333,26.712 598.253333,29.12 C602.117333,26.544 606.149333,23.352 608.837333,20.664 Z M642.194667,18.088 L637.210667,18.424 C636.538667,22.12 635.866667,25.76 635.138667,28.952 C636.538667,30.128 637.994667,31.36 639.450667,32.592 C641.354667,27.552 642.026667,22.456 642.194667,18.088 Z M651.378667,17.472 L648.410667,17.696 C648.242667,23.464 647.458667,30.408 644.546667,37.072 C647.234667,39.592 649.698667,41.888 651.322667,43.848 L646.954667,49.392 C645.554667,47.6 643.538667,45.416 641.242667,43.12 C638.890667,46.648 635.866667,49.952 631.722667,52.976 C630.714667,51.576 628.530667,49.392 627.018667,48.328 C631.218667,45.36 634.298667,42.056 636.482667,38.528 C633.626667,35.896 630.658667,33.208 628.138667,30.968 C629.034667,27.608 629.986667,23.352 630.770667,18.76 L627.634667,18.984 L627.018667,12.656 C628.474667,12.6 630.098667,12.544 631.778667,12.488 C632.338667,8.456 632.786667,4.424 633.010667,0.728 L639.618667,1.008 C639.282667,4.536 638.834667,8.344 638.218667,12.208 L642.250667,11.984 L642.250667,8.456 L648.466667,8.456 L648.466667,11.648 L651.378667,11.48 L651.378667,17.472 Z M679.434667,23.576 L679.434667,29.904 L668.234667,29.904 L668.234667,45.64 C668.234667,49.056 667.506667,50.736 665.154667,51.8 C662.914667,52.752 659.722667,52.92 655.354667,52.864 C655.018667,51.016 654.066667,48.272 653.114667,46.536 C655.914667,46.592 659.162667,46.592 660.058667,46.592 C661.010667,46.592 661.290667,46.368 661.290667,45.528 L661.290667,29.904 L649.530667,29.904 L649.530667,23.576 L661.290667,23.576 L661.290667,18.2 C663.698667,16.072 666.162667,12.936 668.122667,10.024 L651.714667,10.024 L651.714667,3.976 L672.490667,3.976 L674.058667,3.64 L678.538667,6.888 C675.906667,10.976 672.210667,15.68 668.234667,19.376 L668.234667,23.576 L679.434667,23.576 Z M731.216,11.48 L731.216,8.792 L727.912,8.792 L727.912,11.48 L731.216,11.48 Z M731.216,17.864 L731.216,15.176 L727.912,15.176 L727.912,17.864 L731.216,17.864 Z M713.072,15.176 L713.072,17.864 L716.376,17.864 L716.376,15.176 L713.072,15.176 Z M713.072,8.792 L713.072,11.48 L716.376,11.48 L716.376,8.792 L713.072,8.792 Z M723.712,15.176 L720.576,15.176 L720.576,17.864 L723.712,17.864 L723.712,15.176 Z M720.576,11.48 L723.712,11.48 L723.712,8.792 L720.576,8.792 L720.576,11.48 Z M736.76,4.928 L736.76,21.84 L707.696,21.84 L707.696,4.928 L715.424,4.928 L715.424,0.56 L720.576,0.56 L720.576,4.928 L723.712,4.928 L723.712,0.56 L728.864,0.56 L728.864,4.928 L736.76,4.928 Z M705.848,28.504 L705.848,23.8 L738.496,23.8 L738.496,28.504 L705.848,28.504 Z M707.472,31.416 L703.384,36.96 C702.488,35.448 701.088,33.432 699.688,31.472 L699.688,52.808 L693.696,52.808 L693.696,33.04 C692.128,34.664 690.616,36.12 689.048,37.296 C688.656,35.336 687.312,31.64 686.528,30.352 C691.232,27.216 695.768,21.728 698.568,15.904 L687.76,15.904 L687.76,9.912 L695.264,9.912 C694.312,7.952 692.8,5.656 691.344,3.864 L696.328,0.784 C698.176,2.856 700.136,5.768 701.032,7.784 L697.952,9.912 L701.76,9.912 L702.936,9.632 L706.296,12.096 C704.896,16.296 702.992,20.384 700.64,24.136 C702.824,26.264 706.464,30.24 707.472,31.416 Z M726.792,41.72 L717.608,41.72 C718.392,43.456 719.232,45.416 719.736,46.984 L724.72,46.984 C725.504,45.304 726.288,43.344 726.792,41.72 Z M714.92,34.384 L714.92,37.744 L729.312,37.744 L729.312,34.384 L714.92,34.384 Z M730.208,46.984 L739.056,46.984 L739.056,51.912 L705.176,51.912 L705.176,46.984 L714.024,46.984 C713.52,45.584 712.904,44.072 712.4,42.84 L715.984,41.72 L709.488,41.72 L709.488,30.464 L735.024,30.464 L735.024,41.72 L728.472,41.72 L732.84,42.952 C732,44.352 731.048,45.696 730.208,46.984 Z" id="獨家好禮"></path>
        </g>
    </g>
</svg>