<?xml version="1.0" encoding="UTF-8"?>
<svg width="262px" height="76px" viewBox="0 0 262 76" version="1.1" xmlns="http://www.w3.org/2000/svg" xmlns:xlink="http://www.w3.org/1999/xlink">
    <!-- Generator: Sketch 55.2 (78181) - https://sketchapp.com -->
    <title>beauty phone</title>
    <desc>Created with Sketch.</desc>
    <g id="Drunk-Elephant_美麗台_phone" stroke="none" stroke-width="1" fill="none" fill-rule="evenodd">
        <g id="Phone_index_美麗台-Copy" transform="translate(-77.000000, -4552.000000)" fill="#FF27C8" fill-rule="nonzero">
            <g id="beauty-phone" transform="translate(77.383647, 4552.152000)">
                <path d="M15.264,12.744 C16.8000077,13.1040018 18.0179955,13.8479944 18.918,14.976 C19.8180045,16.1040056 20.268,17.4119926 20.268,18.9 C20.268,21.0840109 19.5420073,22.7879939 18.09,24.012 C16.6379927,25.2360061 14.5560136,25.848 11.844,25.848 L5.68434189e-14,25.848 L5.68434189e-14,0.396 L11.556,0.396 C14.148013,0.396 16.1519929,0.95999436 17.568,2.088 C18.9840071,3.21600564 19.692,4.82398956 19.692,6.912 C19.692,8.44800768 19.2840041,9.7259949 18.468,10.746 C17.6519959,11.7660051 16.5840066,12.4319984 15.264,12.744 Z M6.156,10.8 L10.188,10.8 C12.3240107,10.8 13.392,9.88800912 13.392,8.064 C13.392,6.23999088 12.3000109,5.328 10.116,5.328 L6.156,5.328 L6.156,10.8 Z M10.548,20.844 C12.8280114,20.844 13.968,19.9080094 13.968,18.036 C13.968,17.1239954 13.668003,16.4100026 13.068,15.894 C12.467997,15.3779974 11.6160055,15.12 10.512,15.12 L6.156,15.12 L6.156,20.844 L10.548,20.844 Z M43.4350588,15.264 C43.4350588,15.7680025 43.3750594,16.319997 43.2550588,16.92 L29.3230588,16.92 C29.3950592,18.4320076 29.7790553,19.5179967 30.4750588,20.178 C31.1710623,20.8380033 32.0590534,21.168 33.1390588,21.168 C34.0510634,21.168 34.8070558,20.9400023 35.4070588,20.484 C36.0070618,20.0279977 36.4030579,19.4400036 36.5950588,18.72 L43.1110588,18.72 C42.8470575,20.1360071 42.2710633,21.4019944 41.3830588,22.518 C40.4950544,23.6340056 39.3670657,24.5099968 37.9990588,25.146 C36.631052,25.7820032 35.1070672,26.1 33.4270588,26.1 C31.459049,26.1 29.7130664,25.6860041 28.1890588,24.858 C26.6650512,24.0299959 25.4710631,22.8360078 24.6070588,21.276 C23.7430545,19.7159922 23.3110588,17.8920104 23.3110588,15.804 C23.3110588,13.6919894 23.7370546,11.8620077 24.5890588,10.314 C25.4410631,8.76599226 26.6350511,7.57800414 28.1710588,6.75 C29.7070665,5.92199586 31.459049,5.508 33.4270588,5.508 C35.4190688,5.508 37.1710513,5.91599592 38.6830588,6.732 C40.1950664,7.54800408 41.3650547,8.69399262 42.1930588,10.17 C43.021063,11.6460074 43.4350588,13.3439904 43.4350588,15.264 Z M37.2070588,14.328 C37.2310589,13.0079934 36.8770625,12.0180033 36.1450588,11.358 C35.4130552,10.6979967 34.5070642,10.368 33.4270588,10.368 C32.2990532,10.368 31.3630625,10.7039966 30.6190588,11.376 C29.8750551,12.0480034 29.4550593,13.0319935 29.3590588,14.328 L37.2070588,14.328 Z M55.1181176,5.508 C56.6541253,5.508 57.9741121,5.85599652 59.0781176,6.552 C60.1821232,7.24800348 60.998115,8.195994 61.5261176,9.396 L61.5261176,5.76 L67.6461176,5.76 L67.6461176,25.848 L61.5261176,25.848 L61.5261176,22.212 C60.998115,23.412006 60.1821232,24.3599965 59.0781176,25.056 C57.9741121,25.7520035 56.6541253,26.1 55.1181176,26.1 C53.4621094,26.1 51.9801242,25.6860041 50.6721176,24.858 C49.3641111,24.0299959 48.3321214,22.8360078 47.5761176,21.276 C46.8201139,19.7159922 46.4421176,17.8920104 46.4421176,15.804 C46.4421176,13.6919894 46.8201139,11.8620077 47.5761176,10.314 C48.3321214,8.76599226 49.3641111,7.57800414 50.6721176,6.75 C51.9801242,5.92199586 53.4621094,5.508 55.1181176,5.508 Z M57.0981176,10.908 C55.778111,10.908 54.7161217,11.3399957 53.9121176,12.204 C53.1081136,13.0680043 52.7061176,14.2679923 52.7061176,15.804 C52.7061176,17.3400077 53.1081136,18.5399957 53.9121176,19.404 C54.7161217,20.2680043 55.778111,20.7 57.0981176,20.7 C58.3941241,20.7 59.4561135,20.2560044 60.2841176,19.368 C61.1121218,18.4799956 61.5261176,17.2920074 61.5261176,15.804 C61.5261176,14.2919924 61.1121218,13.0980044 60.2841176,12.222 C59.4561135,11.3459956 58.3941241,10.908 57.0981176,10.908 Z M92.7211765,5.76 L92.7211765,25.848 L86.5291765,25.848 L86.5291765,22.212 C85.9531765,23.3880059 85.0951822,24.3239965 83.9551765,25.02 C82.8151708,25.7160035 81.489184,26.064 79.9771765,26.064 C77.673165,26.064 75.8431833,25.2960077 74.4871765,23.76 C73.1311697,22.2239923 72.4531765,20.1120134 72.4531765,17.424 L72.4531765,5.76 L78.5731765,5.76 L78.5731765,16.668 C78.5731765,18.0360068 78.9271729,19.0979962 79.6351765,19.854 C80.34318,20.6100038 81.2971705,20.988 82.4971765,20.988 C83.7451827,20.988 84.7291729,20.592004 85.4491765,19.8 C86.1691801,19.007996 86.5291765,17.8800073 86.5291765,16.416 L86.5291765,5.76 L92.7211765,5.76 Z M109.192235,20.556 L109.192235,25.848 L106.420235,25.848 C104.068224,25.848 102.238242,25.2660058 100.930235,24.102 C99.6222288,22.9379942 98.9682353,21.0120134 98.9682353,18.324 L98.9682353,10.944 L96.2682353,10.944 L96.2682353,5.76 L98.9682353,5.76 L98.9682353,0.828 L105.124235,0.828 L105.124235,5.76 L109.156235,5.76 L109.156235,10.944 L105.124235,10.944 L105.124235,18.432 C105.124235,19.224004 105.286234,19.7759984 105.610235,20.088 C105.934237,20.4000016 106.480231,20.556 107.248235,20.556 L109.192235,20.556 Z M118.139294,5.76 L122.963294,18.072 L127.463294,5.76 L134.267294,5.76 L121.739294,35.424 L114.971294,35.424 L119.687294,25.092 L111.263294,5.76 L118.139294,5.76 Z M163.501412,18.684 C163.501412,20.0280067 163.159415,21.2639944 162.475412,22.392 C161.791408,23.5200056 160.783418,24.4199966 159.451412,25.092 C158.119405,25.7640034 156.505421,26.1 154.609412,26.1 C151.753397,26.1 149.401421,25.404007 147.553412,24.012 C145.705403,22.619993 144.697413,20.6760125 144.529412,18.18 L151.081412,18.18 C151.177412,19.1400048 151.519409,19.8959972 152.107412,20.448 C152.695415,21 153.445407,21.276 154.357412,21.276 C155.149416,21.276 155.773409,21.0600022 156.229412,20.628 C156.685414,20.1959978 156.913412,19.6200036 156.913412,18.9 C156.913412,18.2519968 156.703414,17.7120022 156.283412,17.28 C155.86341,16.8479978 155.341415,16.4940014 154.717412,16.218 C154.093409,15.9419986 153.229417,15.6120019 152.125412,15.228 C150.517404,14.6759972 149.203417,14.1420026 148.183412,13.626 C147.163407,13.1099974 146.287415,12.3420051 145.555412,11.322 C144.823408,10.3019949 144.457412,8.97600816 144.457412,7.344 C144.457412,5.83199244 144.841408,4.52400552 145.609412,3.42 C146.377416,2.31599448 147.439405,1.47000294 148.795412,0.882 C150.151419,0.29399706 151.705403,-4.54747351e-13 153.457412,-4.54747351e-13 C156.289426,-4.54747351e-13 158.539403,0.67199328 160.207412,2.016 C161.87542,3.36000672 162.817411,5.20798824 163.033412,7.56 L156.373412,7.56 C156.253411,6.7199958 155.947414,6.05400246 155.455412,5.562 C154.963409,5.06999754 154.297416,4.824 153.457412,4.824 C152.737408,4.824 152.155414,5.01599808 151.711412,5.4 C151.26741,5.78400192 151.045412,6.34799628 151.045412,7.092 C151.045412,7.692003 151.24341,8.2019979 151.639412,8.622 C152.035414,9.0420021 152.533409,9.38399868 153.133412,9.648 C153.733415,9.91200132 154.597406,10.247998 155.725412,10.656 C157.35742,11.2080028 158.689407,11.7539973 159.721412,12.294 C160.753417,12.8340027 161.641408,13.6199948 162.385412,14.652 C163.129415,15.6840052 163.501412,17.0279917 163.501412,18.684 Z M186.056471,0.396 L186.056471,5.292 L179.144471,5.292 L179.144471,25.848 L172.952471,25.848 L172.952471,5.292 L166.112471,5.292 L166.112471,0.396 L186.056471,0.396 Z M205.263529,21.204 L195.723529,21.204 L194.139529,25.848 L187.659529,25.848 L196.983529,0.576 L204.075529,0.576 L213.399529,25.848 L206.847529,25.848 L205.263529,21.204 Z M203.679529,16.524 L200.511529,7.164 L197.307529,16.524 L203.679529,16.524 Z M228.538588,0.144 C231.730604,0.144 234.358578,0.9239922 236.422588,2.484 C238.486599,4.0440078 239.770586,6.15598668 240.274588,8.82 L233.758588,8.82 C233.326586,7.90799544 232.666593,7.1820027 231.778588,6.642 C230.890584,6.1019973 229.822594,5.832 228.574588,5.832 C226.630579,5.832 225.070594,6.48599346 223.894588,7.794 C222.718582,9.10200654 222.130588,10.8719888 222.130588,13.104 C222.130588,15.5280121 222.748582,17.3879935 223.984588,18.684 C225.220594,19.9800065 226.978577,20.628 229.258588,20.628 C230.722596,20.628 232.006583,20.226004 233.110588,19.422 C234.214594,18.617996 234.994586,17.4720074 235.450588,15.984 L227.674588,15.984 L227.674588,11.556 L240.598588,11.556 L240.598588,17.64 C240.118586,19.1280074 239.350594,20.5079936 238.294588,21.78 C237.238583,23.0520064 235.888596,24.083996 234.244588,24.876 C232.60058,25.668004 230.722599,26.064 228.610588,26.064 C226.042575,26.064 223.798598,25.5180055 221.878588,24.426 C219.958579,23.3339945 218.476593,21.8040098 217.432588,19.836 C216.388583,17.8679902 215.866588,15.6240126 215.866588,13.104 C215.866588,10.5839874 216.388583,8.34000984 217.432588,6.372 C218.476593,4.40399016 219.952579,2.87400546 221.860588,1.782 C223.768598,0.68999454 225.994576,0.144 228.538588,0.144 Z M251.057647,5.292 L251.057647,10.62 L259.661647,10.62 L259.661647,15.264 L251.057647,15.264 L251.057647,20.916 L260.741647,20.916 L260.741647,25.848 L244.901647,25.848 L244.901647,0.396 L260.741647,0.396 L260.741647,5.292 L251.057647,5.292 Z" id="BeautySTAGE"></path>
                <path d="M86.4773529,67.85 L85.2873529,67.85 C86.0013529,69.244 86.6813529,70.944 87.0213529,72.27 C87.2253529,72.168 87.3613529,72.032 87.5313529,71.794 C88.0413529,71.046 88.3133529,67.816 88.5173529,58.772 L75.6653529,58.772 C75.0533529,59.554 74.4073529,60.268 73.7613529,60.88 L78.0793529,60.88 L78.0793529,59.282 L81.1393529,59.282 L81.1393529,60.88 L86.4773529,60.88 L86.4773529,67.85 Z M81.1393529,69.788 L83.0773529,69.618 C82.9073529,69.21 82.7033529,68.836 82.5333529,68.462 L84.5393529,67.85 L81.1393529,67.85 L81.1393529,69.788 Z M81.1393529,63.396 L81.1393529,65.402 L83.3493529,65.402 L83.3493529,63.396 L81.1393529,63.396 Z M75.8693529,65.402 L78.0793529,65.402 L78.0793529,63.396 L75.8693529,63.396 L75.8693529,65.402 Z M75.7673529,48.266 L75.7673529,50.85 L77.9093529,50.85 L77.9093529,48.266 L75.7673529,48.266 Z M80.7313529,48.266 L80.7313529,50.85 L82.9073529,50.85 L82.9073529,48.266 L80.7313529,48.266 Z M85.7293529,48.266 L85.7293529,50.85 L87.9393529,50.85 L87.9393529,48.266 L85.7293529,48.266 Z M77.7733529,55.576 L92.2913529,55.576 C92.2913529,55.576 92.2573529,56.732 92.2573529,57.208 C92.0193529,68.7 91.7473529,72.882 90.8633529,74.14 C90.1833529,75.092 89.5373529,75.432 88.6193529,75.602 C87.8033529,75.772 86.6133529,75.772 85.2873529,75.738 C85.2533529,75.092 85.0833529,74.31 84.8793529,73.562 L84.3693529,73.732 C84.3013529,73.358 84.1993529,72.916 84.0973529,72.474 C79.7113529,72.95 75.2913529,73.46 71.9593529,73.834 L71.5853529,70.536 C73.3533529,70.434 75.6313529,70.23 78.0793529,70.026 L78.0793529,67.85 L72.8773529,67.85 L72.8773529,61.594 C72.4013529,61.118 71.5513529,60.404 70.7693529,59.86 C70.8373529,60.744 70.8373529,61.628 70.8373529,62.512 C70.8373529,67.306 70.5313529,72.066 69.0013529,74.174 C68.5253529,74.854 67.8113529,75.33 66.9613529,75.5 C65.7373529,75.806 64.4113529,75.84 62.9833529,75.772 C62.9833529,74.48 62.6773529,73.052 61.9973529,71.896 C63.4253529,71.998 64.4793529,71.998 65.0913529,71.93 C65.5333529,71.862 65.8393529,71.692 66.1113529,71.352 C66.7573529,70.536 67.0293529,67.204 67.0633529,63.396 C65.8393529,64.994 64.5133529,66.456 63.2893529,67.544 C62.6773529,66.558 61.5893529,65.232 60.6713529,64.484 C62.8813529,63.022 65.3293529,60.268 66.8253529,57.65 C66.6893529,56.494 66.4853529,55.372 66.1793529,54.284 C65.2953529,55.202 64.3773529,56.018 63.4593529,56.766 C62.8473529,55.95 61.5893529,54.76 60.7393529,54.148 C62.0653529,53.162 63.3573529,51.904 64.5813529,50.51 C63.7313529,49.082 62.6433529,47.688 61.1813529,46.328 L63.9693529,44.186 C65.1253529,45.24 66.1113529,46.328 66.9273529,47.416 C67.6073529,46.396 68.1853529,45.376 68.6953529,44.356 L72.2313529,46.124 C71.3133529,47.824 70.2253529,49.49 69.0013529,51.054 C70.0553529,53.502 70.5313529,56.052 70.7353529,58.704 C72.2653529,57.378 73.6253529,55.678 74.6113529,53.876 L72.3673529,53.876 L72.3673529,45.308 L91.5433529,45.308 L91.5433529,53.876 L78.6233529,53.876 C78.3853529,54.454 78.0793529,55.032 77.7733529,55.576 Z M101.445853,50.408 L101.445853,54.42 L97.4678529,54.42 L97.4678529,46.736 L109.775853,46.736 C109.537853,46.09 109.231853,45.444 108.959853,44.934 L113.243853,43.71 C113.787853,44.628 114.365853,45.75 114.705853,46.736 L126.809853,46.736 L126.809853,54.42 L122.661853,54.42 L122.661853,50.408 L101.445853,50.408 Z M121.335853,56.256 L124.701853,58.908 C123.341853,59.962 121.811853,61.05 120.315853,62.07 C121.641853,66.082 124.361853,69.448 128.271853,71.012 C127.353853,71.76 126.163853,73.324 125.585853,74.31 C121.505853,72.372 118.819853,68.734 117.153853,64.11 C116.813853,64.348 116.439853,64.552 116.099853,64.756 C117.051853,68.836 116.235853,72.746 114.501853,74.174 C113.311853,75.398 112.223853,75.738 110.455853,75.772 C109.707853,75.806 108.687853,75.772 107.701853,75.738 C107.633853,74.616 107.293853,73.018 106.613853,71.896 C107.803853,72.032 108.891853,72.066 109.673853,72.066 C110.489853,72.066 111.033853,71.964 111.509853,71.25 C112.087853,70.706 112.495853,69.448 112.495853,67.816 C108.619853,70.468 103.281853,72.984 98.7598529,74.344 C98.3178529,73.358 97.4338529,71.896 96.6518529,70.978 C102.023853,69.822 108.551853,66.898 111.917853,64.042 C111.781853,63.634 111.611853,63.192 111.407853,62.75 C108.007853,64.892 103.043853,67.102 99.1678529,68.292 C98.7258529,67.374 97.8758529,66.014 97.1618529,65.164 C101.343853,64.28 106.919853,62.138 109.877853,60.166 C109.571853,59.792 109.265853,59.418 108.925853,59.044 C105.967853,60.608 102.669853,61.764 99.4738529,62.614 C99.0998529,61.832 98.0798529,60.234 97.3998529,59.452 C101.241853,58.67 105.287853,57.378 108.347853,55.712 L102.499853,55.712 L102.499853,52.278 L121.505853,52.278 L121.505853,55.712 L113.957853,55.712 C113.345853,56.256 112.665853,56.8 111.917853,57.276 C113.243853,58.5 114.229853,59.928 114.909853,61.39 C117.255853,59.826 119.703853,57.888 121.335853,56.256 Z M140.384353,54.692 L137.358353,54.896 C136.950353,57.14 136.542353,59.35 136.100353,61.288 C136.950353,62.002 137.834353,62.75 138.718353,63.498 C139.874353,60.438 140.282353,57.344 140.384353,54.692 Z M145.960353,54.318 L144.158353,54.454 C144.056353,57.956 143.580353,62.172 141.812353,66.218 C143.444353,67.748 144.940353,69.142 145.926353,70.332 L143.274353,73.698 C142.424353,72.61 141.200353,71.284 139.806353,69.89 C138.378353,72.032 136.542353,74.038 134.026353,75.874 C133.414353,75.024 132.088353,73.698 131.170353,73.052 C133.720353,71.25 135.590353,69.244 136.916353,67.102 C135.182353,65.504 133.380353,63.872 131.850353,62.512 C132.394353,60.472 132.972353,57.888 133.448353,55.1 L131.544353,55.236 L131.170353,51.394 C132.054353,51.36 133.040353,51.326 134.060353,51.292 C134.400353,48.844 134.672353,46.396 134.808353,44.152 L138.820353,44.322 C138.616353,46.464 138.344353,48.776 137.970353,51.122 L140.418353,50.986 L140.418353,48.844 L144.192353,48.844 L144.192353,50.782 L145.960353,50.68 L145.960353,54.318 Z M162.994353,58.024 L162.994353,61.866 L156.194353,61.866 L156.194353,71.42 C156.194353,73.494 155.752353,74.514 154.324353,75.16 C152.964353,75.738 151.026353,75.84 148.374353,75.806 C148.170353,74.684 147.592353,73.018 147.014353,71.964 C148.714353,71.998 150.686353,71.998 151.230353,71.998 C151.808353,71.998 151.978353,71.862 151.978353,71.352 L151.978353,61.866 L144.838353,61.866 L144.838353,58.024 L151.978353,58.024 L151.978353,54.76 C153.440353,53.468 154.936353,51.564 156.126353,49.796 L146.164353,49.796 L146.164353,46.124 L158.778353,46.124 L159.730353,45.92 L162.450353,47.892 C160.852353,50.374 158.608353,53.23 156.194353,55.474 L156.194353,58.024 L162.994353,58.024 Z M193.228853,50.68 L193.228853,49.048 L191.222853,49.048 L191.222853,50.68 L193.228853,50.68 Z M193.228853,54.556 L193.228853,52.924 L191.222853,52.924 L191.222853,54.556 L193.228853,54.556 Z M182.212853,52.924 L182.212853,54.556 L184.218853,54.556 L184.218853,52.924 L182.212853,52.924 Z M182.212853,49.048 L182.212853,50.68 L184.218853,50.68 L184.218853,49.048 L182.212853,49.048 Z M188.672853,52.924 L186.768853,52.924 L186.768853,54.556 L188.672853,54.556 L188.672853,52.924 Z M186.768853,50.68 L188.672853,50.68 L188.672853,49.048 L186.768853,49.048 L186.768853,50.68 Z M196.594853,46.702 L196.594853,56.97 L178.948853,56.97 L178.948853,46.702 L183.640853,46.702 L183.640853,44.05 L186.768853,44.05 L186.768853,46.702 L188.672853,46.702 L188.672853,44.05 L191.800853,44.05 L191.800853,46.702 L196.594853,46.702 Z M177.826853,61.016 L177.826853,58.16 L197.648853,58.16 L197.648853,61.016 L177.826853,61.016 Z M178.812853,62.784 L176.330853,66.15 C175.786853,65.232 174.936853,64.008 174.086853,62.818 L174.086853,75.772 L170.448853,75.772 L170.448853,63.77 C169.496853,64.756 168.578853,65.64 167.626853,66.354 C167.388853,65.164 166.572853,62.92 166.096853,62.138 C168.952853,60.234 171.706853,56.902 173.406853,53.366 L166.844853,53.366 L166.844853,49.728 L171.400853,49.728 C170.822853,48.538 169.904853,47.144 169.020853,46.056 L172.046853,44.186 C173.168853,45.444 174.358853,47.212 174.902853,48.436 L173.032853,49.728 L175.344853,49.728 L176.058853,49.558 L178.098853,51.054 C177.248853,53.604 176.092853,56.086 174.664853,58.364 C175.990853,59.656 178.200853,62.07 178.812853,62.784 Z M190.542853,69.04 L184.966853,69.04 C185.442853,70.094 185.952853,71.284 186.258853,72.236 L189.284853,72.236 C189.760853,71.216 190.236853,70.026 190.542853,69.04 Z M183.334853,64.586 L183.334853,66.626 L192.072853,66.626 L192.072853,64.586 L183.334853,64.586 Z M192.616853,72.236 L197.988853,72.236 L197.988853,75.228 L177.418853,75.228 L177.418853,72.236 L182.790853,72.236 C182.484853,71.386 182.110853,70.468 181.804853,69.72 L183.980853,69.04 L180.036853,69.04 L180.036853,62.206 L195.540853,62.206 L195.540853,69.04 L191.562853,69.04 L194.214853,69.788 C193.704853,70.638 193.126853,71.454 192.616853,72.236 Z" id="獨家好禮"></path>
            </g>
        </g>
    </g>
</svg>