<?xml version="1.0" encoding="UTF-8"?>
<svg width="263px" height="77px" viewBox="0 0 263 77" version="1.1" xmlns="http://www.w3.org/2000/svg" xmlns:xlink="http://www.w3.org/1999/xlink">
    <!-- Generator: Sketch 55.2 (78181) - https://sketchapp.com -->
    <title>beauty phone</title>
    <desc>Created with Sketch.</desc>
    <g id="Drunk-Elephant_美麗台_phone" stroke="none" stroke-width="1" fill="none" fill-rule="evenodd">
        <g id="Phone_index_美麗台-Copy" transform="translate(-76.000000, -4551.000000)" fill="#FF27C8" fill-rule="nonzero">
            <g id="beauty-phone" transform="translate(76.933647, 4551.360000)">
                <path d="M12.528,6.3 C14.1840083,6.3 15.6659935,6.71399586 16.974,7.542 C18.2820065,8.37000414 19.3139962,9.55799226 20.07,11.106 C20.8260038,12.6540077 21.204,14.4839894 21.204,16.596 C21.204,18.6840104 20.8260038,20.5079922 20.07,22.068 C19.3139962,23.6280078 18.2820065,24.8219959 16.974,25.65 C15.6659935,26.4780041 14.1840083,26.892 12.528,26.892 C10.9919923,26.892 9.67200552,26.5440035 8.568,25.848 C7.46399448,25.1519965 6.66000252,24.204006 6.156,23.004 L6.156,26.64 L0,26.64 L0,0 L6.156,0 L6.156,10.188 C6.66000252,8.987994 7.46399448,8.04000348 8.568,7.344 C9.67200552,6.64799652 10.9919923,6.3 12.528,6.3 Z M10.548,11.7 C9.25199352,11.7 8.19000414,12.1379956 7.362,13.014 C6.53399586,13.8900044 6.12,15.0839924 6.12,16.596 C6.12,18.0840074 6.53399586,19.2719956 7.362,20.16 C8.19000414,21.0480044 9.25199352,21.492 10.548,21.492 C11.8680066,21.492 12.929996,21.0600043 13.734,20.196 C14.538004,19.3319957 14.94,18.1320077 14.94,16.596 C14.94,15.0599923 14.538004,13.8600043 13.734,12.996 C12.929996,12.1319957 11.8680066,11.7 10.548,11.7 Z M44.3350588,16.056 C44.3350588,16.5600025 44.2750594,17.111997 44.1550588,17.712 L30.2230588,17.712 C30.2950592,19.2240076 30.6790553,20.3099967 31.3750588,20.97 C32.0710623,21.6300033 32.9590534,21.96 34.0390588,21.96 C34.9510634,21.96 35.7070558,21.7320023 36.3070588,21.276 C36.9070618,20.8199977 37.3030579,20.2320036 37.4950588,19.512 L44.0110588,19.512 C43.7470575,20.9280071 43.1710633,22.1939944 42.2830588,23.31 C41.3950544,24.4260056 40.2670657,25.3019968 38.8990588,25.938 C37.531052,26.5740032 36.0070672,26.892 34.3270588,26.892 C32.359049,26.892 30.6130664,26.4780041 29.0890588,25.65 C27.5650512,24.8219959 26.3710631,23.6280078 25.5070588,22.068 C24.6430545,20.5079922 24.2110588,18.6840104 24.2110588,16.596 C24.2110588,14.4839894 24.6370546,12.6540077 25.4890588,11.106 C26.3410631,9.55799226 27.5350511,8.37000414 29.0710588,7.542 C30.6070665,6.71399586 32.359049,6.3 34.3270588,6.3 C36.3190688,6.3 38.0710513,6.70799592 39.5830588,7.524 C41.0950664,8.34000408 42.2650547,9.48599262 43.0930588,10.962 C43.921063,12.4380074 44.3350588,14.1359904 44.3350588,16.056 Z M38.1070588,15.12 C38.1310589,13.7999934 37.7770625,12.8100033 37.0450588,12.15 C36.3130552,11.4899967 35.4070642,11.16 34.3270588,11.16 C33.1990532,11.16 32.2630625,11.4959966 31.5190588,12.168 C30.7750551,12.8400034 30.3550593,13.8239935 30.2590588,15.12 L38.1070588,15.12 Z M56.0181176,6.3 C57.5541253,6.3 58.8741121,6.64799652 59.9781176,7.344 C61.0821232,8.04000348 61.898115,8.987994 62.4261176,10.188 L62.4261176,6.552 L68.5461176,6.552 L68.5461176,26.64 L62.4261176,26.64 L62.4261176,23.004 C61.898115,24.204006 61.0821232,25.1519965 59.9781176,25.848 C58.8741121,26.5440035 57.5541253,26.892 56.0181176,26.892 C54.3621094,26.892 52.8801242,26.4780041 51.5721176,25.65 C50.2641111,24.8219959 49.2321214,23.6280078 48.4761176,22.068 C47.7201139,20.5079922 47.3421176,18.6840104 47.3421176,16.596 C47.3421176,14.4839894 47.7201139,12.6540077 48.4761176,11.106 C49.2321214,9.55799226 50.2641111,8.37000414 51.5721176,7.542 C52.8801242,6.71399586 54.3621094,6.3 56.0181176,6.3 Z M57.9981176,11.7 C56.678111,11.7 55.6161217,12.1319957 54.8121176,12.996 C54.0081136,13.8600043 53.6061176,15.0599923 53.6061176,16.596 C53.6061176,18.1320077 54.0081136,19.3319957 54.8121176,20.196 C55.6161217,21.0600043 56.678111,21.492 57.9981176,21.492 C59.2941241,21.492 60.3561135,21.0480044 61.1841176,20.16 C62.0121218,19.2719956 62.4261176,18.0840074 62.4261176,16.596 C62.4261176,15.0839924 62.0121218,13.8900044 61.1841176,13.014 C60.3561135,12.1379956 59.2941241,11.7 57.9981176,11.7 Z M93.6211765,6.552 L93.6211765,26.64 L87.4291765,26.64 L87.4291765,23.004 C86.8531765,24.1800059 85.9951822,25.1159965 84.8551765,25.812 C83.7151708,26.5080035 82.389184,26.856 80.8771765,26.856 C78.573165,26.856 76.7431833,26.0880077 75.3871765,24.552 C74.0311697,23.0159923 73.3531765,20.9040134 73.3531765,18.216 L73.3531765,6.552 L79.4731765,6.552 L79.4731765,17.46 C79.4731765,18.8280068 79.8271729,19.8899962 80.5351765,20.646 C81.24318,21.4020038 82.1971705,21.78 83.3971765,21.78 C84.6451827,21.78 85.6291729,21.384004 86.3491765,20.592 C87.0691801,19.799996 87.4291765,18.6720073 87.4291765,17.208 L87.4291765,6.552 L93.6211765,6.552 Z M110.092235,21.348 L110.092235,26.64 L107.320235,26.64 C104.968224,26.64 103.138242,26.0580058 101.830235,24.894 C100.522229,23.7299942 99.8682353,21.8040134 99.8682353,19.116 L99.8682353,11.736 L97.1682353,11.736 L97.1682353,6.552 L99.8682353,6.552 L99.8682353,1.62 L106.024235,1.62 L106.024235,6.552 L110.056235,6.552 L110.056235,11.736 L106.024235,11.736 L106.024235,19.224 C106.024235,20.016004 106.186234,20.5679984 106.510235,20.88 C106.834237,21.1920016 107.380231,21.348 108.148235,21.348 L110.092235,21.348 Z M119.039294,6.552 L123.863294,18.864 L128.363294,6.552 L135.167294,6.552 L122.639294,36.216 L115.871294,36.216 L120.587294,25.884 L112.163294,6.552 L119.039294,6.552 Z M164.401412,19.476 C164.401412,20.8200067 164.059415,22.0559944 163.375412,23.184 C162.691408,24.3120056 161.683418,25.2119966 160.351412,25.884 C159.019405,26.5560034 157.405421,26.892 155.509412,26.892 C152.653397,26.892 150.301421,26.196007 148.453412,24.804 C146.605403,23.411993 145.597413,21.4680125 145.429412,18.972 L151.981412,18.972 C152.077412,19.9320048 152.419409,20.6879972 153.007412,21.24 C153.595415,21.792 154.345407,22.068 155.257412,22.068 C156.049416,22.068 156.673409,21.8520022 157.129412,21.42 C157.585414,20.9879978 157.813412,20.4120036 157.813412,19.692 C157.813412,19.0439968 157.603414,18.5040022 157.183412,18.072 C156.76341,17.6399978 156.241415,17.2860014 155.617412,17.01 C154.993409,16.7339986 154.129417,16.4040019 153.025412,16.02 C151.417404,15.4679972 150.103417,14.9340026 149.083412,14.418 C148.063407,13.9019974 147.187415,13.1340051 146.455412,12.114 C145.723408,11.0939949 145.357412,9.76800816 145.357412,8.136 C145.357412,6.62399244 145.741408,5.31600552 146.509412,4.212 C147.277416,3.10799448 148.339405,2.26200294 149.695412,1.674 C151.051419,1.08599706 152.605403,0.792 154.357412,0.792 C157.189426,0.792 159.439403,1.46399328 161.107412,2.808 C162.77542,4.15200672 163.717411,5.99998824 163.933412,8.352 L157.273412,8.352 C157.153411,7.5119958 156.847414,6.84600246 156.355412,6.354 C155.863409,5.86199754 155.197416,5.616 154.357412,5.616 C153.637408,5.616 153.055414,5.80799808 152.611412,6.192 C152.16741,6.57600192 151.945412,7.13999628 151.945412,7.884 C151.945412,8.484003 152.14341,8.9939979 152.539412,9.414 C152.935414,9.8340021 153.433409,10.1759987 154.033412,10.44 C154.633415,10.7040013 155.497406,11.039998 156.625412,11.448 C158.25742,12.0000028 159.589407,12.5459973 160.621412,13.086 C161.653417,13.6260027 162.541408,14.4119948 163.285412,15.444 C164.029415,16.4760052 164.401412,17.8199917 164.401412,19.476 Z M186.956471,1.188 L186.956471,6.084 L180.044471,6.084 L180.044471,26.64 L173.852471,26.64 L173.852471,6.084 L167.012471,6.084 L167.012471,1.188 L186.956471,1.188 Z M206.163529,21.996 L196.623529,21.996 L195.039529,26.64 L188.559529,26.64 L197.883529,1.368 L204.975529,1.368 L214.299529,26.64 L207.747529,26.64 L206.163529,21.996 Z M204.579529,17.316 L201.411529,7.956 L198.207529,17.316 L204.579529,17.316 Z M229.438588,0.936 C232.630604,0.936 235.258578,1.7159922 237.322588,3.276 C239.386599,4.8360078 240.670586,6.94798668 241.174588,9.612 L234.658588,9.612 C234.226586,8.69999544 233.566593,7.9740027 232.678588,7.434 C231.790584,6.8939973 230.722594,6.624 229.474588,6.624 C227.530579,6.624 225.970594,7.27799346 224.794588,8.586 C223.618582,9.89400654 223.030588,11.6639888 223.030588,13.896 C223.030588,16.3200121 223.648582,18.1799935 224.884588,19.476 C226.120594,20.7720065 227.878577,21.42 230.158588,21.42 C231.622596,21.42 232.906583,21.018004 234.010588,20.214 C235.114594,19.409996 235.894586,18.2640074 236.350588,16.776 L228.574588,16.776 L228.574588,12.348 L241.498588,12.348 L241.498588,18.432 C241.018586,19.9200074 240.250594,21.2999936 239.194588,22.572 C238.138583,23.8440064 236.788596,24.875996 235.144588,25.668 C233.50058,26.460004 231.622599,26.856 229.510588,26.856 C226.942575,26.856 224.698598,26.3100055 222.778588,25.218 C220.858579,24.1259945 219.376593,22.5960098 218.332588,20.628 C217.288583,18.6599902 216.766588,16.4160126 216.766588,13.896 C216.766588,11.3759874 217.288583,9.13200984 218.332588,7.164 C219.376593,5.19599016 220.852579,3.66600546 222.760588,2.574 C224.668598,1.48199454 226.894576,0.936 229.438588,0.936 Z M251.957647,6.084 L251.957647,11.412 L260.561647,11.412 L260.561647,16.056 L251.957647,16.056 L251.957647,21.708 L261.641647,21.708 L261.641647,26.64 L245.801647,26.64 L245.801647,1.188 L261.641647,1.188 L261.641647,6.084 L251.957647,6.084 Z" id="beautySTAGE"></path>
                <path d="M86.9273529,68.642 L85.7373529,68.642 C86.4513529,70.036 87.1313529,71.736 87.4713529,73.062 C87.6753529,72.96 87.8113529,72.824 87.9813529,72.586 C88.4913529,71.838 88.7633529,68.608 88.9673529,59.564 L76.1153529,59.564 C75.5033529,60.346 74.8573529,61.06 74.2113529,61.672 L78.5293529,61.672 L78.5293529,60.074 L81.5893529,60.074 L81.5893529,61.672 L86.9273529,61.672 L86.9273529,68.642 Z M81.5893529,70.58 L83.5273529,70.41 C83.3573529,70.002 83.1533529,69.628 82.9833529,69.254 L84.9893529,68.642 L81.5893529,68.642 L81.5893529,70.58 Z M81.5893529,64.188 L81.5893529,66.194 L83.7993529,66.194 L83.7993529,64.188 L81.5893529,64.188 Z M76.3193529,66.194 L78.5293529,66.194 L78.5293529,64.188 L76.3193529,64.188 L76.3193529,66.194 Z M76.2173529,49.058 L76.2173529,51.642 L78.3593529,51.642 L78.3593529,49.058 L76.2173529,49.058 Z M81.1813529,49.058 L81.1813529,51.642 L83.3573529,51.642 L83.3573529,49.058 L81.1813529,49.058 Z M86.1793529,49.058 L86.1793529,51.642 L88.3893529,51.642 L88.3893529,49.058 L86.1793529,49.058 Z M78.2233529,56.368 L92.7413529,56.368 C92.7413529,56.368 92.7073529,57.524 92.7073529,58 C92.4693529,69.492 92.1973529,73.674 91.3133529,74.932 C90.6333529,75.884 89.9873529,76.224 89.0693529,76.394 C88.2533529,76.564 87.0633529,76.564 85.7373529,76.53 C85.7033529,75.884 85.5333529,75.102 85.3293529,74.354 L84.8193529,74.524 C84.7513529,74.15 84.6493529,73.708 84.5473529,73.266 C80.1613529,73.742 75.7413529,74.252 72.4093529,74.626 L72.0353529,71.328 C73.8033529,71.226 76.0813529,71.022 78.5293529,70.818 L78.5293529,68.642 L73.3273529,68.642 L73.3273529,62.386 C72.8513529,61.91 72.0013529,61.196 71.2193529,60.652 C71.2873529,61.536 71.2873529,62.42 71.2873529,63.304 C71.2873529,68.098 70.9813529,72.858 69.4513529,74.966 C68.9753529,75.646 68.2613529,76.122 67.4113529,76.292 C66.1873529,76.598 64.8613529,76.632 63.4333529,76.564 C63.4333529,75.272 63.1273529,73.844 62.4473529,72.688 C63.8753529,72.79 64.9293529,72.79 65.5413529,72.722 C65.9833529,72.654 66.2893529,72.484 66.5613529,72.144 C67.2073529,71.328 67.4793529,67.996 67.5133529,64.188 C66.2893529,65.786 64.9633529,67.248 63.7393529,68.336 C63.1273529,67.35 62.0393529,66.024 61.1213529,65.276 C63.3313529,63.814 65.7793529,61.06 67.2753529,58.442 C67.1393529,57.286 66.9353529,56.164 66.6293529,55.076 C65.7453529,55.994 64.8273529,56.81 63.9093529,57.558 C63.2973529,56.742 62.0393529,55.552 61.1893529,54.94 C62.5153529,53.954 63.8073529,52.696 65.0313529,51.302 C64.1813529,49.874 63.0933529,48.48 61.6313529,47.12 L64.4193529,44.978 C65.5753529,46.032 66.5613529,47.12 67.3773529,48.208 C68.0573529,47.188 68.6353529,46.168 69.1453529,45.148 L72.6813529,46.916 C71.7633529,48.616 70.6753529,50.282 69.4513529,51.846 C70.5053529,54.294 70.9813529,56.844 71.1853529,59.496 C72.7153529,58.17 74.0753529,56.47 75.0613529,54.668 L72.8173529,54.668 L72.8173529,46.1 L91.9933529,46.1 L91.9933529,54.668 L79.0733529,54.668 C78.8353529,55.246 78.5293529,55.824 78.2233529,56.368 Z M101.895853,51.2 L101.895853,55.212 L97.9178529,55.212 L97.9178529,47.528 L110.225853,47.528 C109.987853,46.882 109.681853,46.236 109.409853,45.726 L113.693853,44.502 C114.237853,45.42 114.815853,46.542 115.155853,47.528 L127.259853,47.528 L127.259853,55.212 L123.111853,55.212 L123.111853,51.2 L101.895853,51.2 Z M121.785853,57.048 L125.151853,59.7 C123.791853,60.754 122.261853,61.842 120.765853,62.862 C122.091853,66.874 124.811853,70.24 128.721853,71.804 C127.803853,72.552 126.613853,74.116 126.035853,75.102 C121.955853,73.164 119.269853,69.526 117.603853,64.902 C117.263853,65.14 116.889853,65.344 116.549853,65.548 C117.501853,69.628 116.685853,73.538 114.951853,74.966 C113.761853,76.19 112.673853,76.53 110.905853,76.564 C110.157853,76.598 109.137853,76.564 108.151853,76.53 C108.083853,75.408 107.743853,73.81 107.063853,72.688 C108.253853,72.824 109.341853,72.858 110.123853,72.858 C110.939853,72.858 111.483853,72.756 111.959853,72.042 C112.537853,71.498 112.945853,70.24 112.945853,68.608 C109.069853,71.26 103.731853,73.776 99.2098529,75.136 C98.7678529,74.15 97.8838529,72.688 97.1018529,71.77 C102.473853,70.614 109.001853,67.69 112.367853,64.834 C112.231853,64.426 112.061853,63.984 111.857853,63.542 C108.457853,65.684 103.493853,67.894 99.6178529,69.084 C99.1758529,68.166 98.3258529,66.806 97.6118529,65.956 C101.793853,65.072 107.369853,62.93 110.327853,60.958 C110.021853,60.584 109.715853,60.21 109.375853,59.836 C106.417853,61.4 103.119853,62.556 99.9238529,63.406 C99.5498529,62.624 98.5298529,61.026 97.8498529,60.244 C101.691853,59.462 105.737853,58.17 108.797853,56.504 L102.949853,56.504 L102.949853,53.07 L121.955853,53.07 L121.955853,56.504 L114.407853,56.504 C113.795853,57.048 113.115853,57.592 112.367853,58.068 C113.693853,59.292 114.679853,60.72 115.359853,62.182 C117.705853,60.618 120.153853,58.68 121.785853,57.048 Z M140.834353,55.484 L137.808353,55.688 C137.400353,57.932 136.992353,60.142 136.550353,62.08 C137.400353,62.794 138.284353,63.542 139.168353,64.29 C140.324353,61.23 140.732353,58.136 140.834353,55.484 Z M146.410353,55.11 L144.608353,55.246 C144.506353,58.748 144.030353,62.964 142.262353,67.01 C143.894353,68.54 145.390353,69.934 146.376353,71.124 L143.724353,74.49 C142.874353,73.402 141.650353,72.076 140.256353,70.682 C138.828353,72.824 136.992353,74.83 134.476353,76.666 C133.864353,75.816 132.538353,74.49 131.620353,73.844 C134.170353,72.042 136.040353,70.036 137.366353,67.894 C135.632353,66.296 133.830353,64.664 132.300353,63.304 C132.844353,61.264 133.422353,58.68 133.898353,55.892 L131.994353,56.028 L131.620353,52.186 C132.504353,52.152 133.490353,52.118 134.510353,52.084 C134.850353,49.636 135.122353,47.188 135.258353,44.944 L139.270353,45.114 C139.066353,47.256 138.794353,49.568 138.420353,51.914 L140.868353,51.778 L140.868353,49.636 L144.642353,49.636 L144.642353,51.574 L146.410353,51.472 L146.410353,55.11 Z M163.444353,58.816 L163.444353,62.658 L156.644353,62.658 L156.644353,72.212 C156.644353,74.286 156.202353,75.306 154.774353,75.952 C153.414353,76.53 151.476353,76.632 148.824353,76.598 C148.620353,75.476 148.042353,73.81 147.464353,72.756 C149.164353,72.79 151.136353,72.79 151.680353,72.79 C152.258353,72.79 152.428353,72.654 152.428353,72.144 L152.428353,62.658 L145.288353,62.658 L145.288353,58.816 L152.428353,58.816 L152.428353,55.552 C153.890353,54.26 155.386353,52.356 156.576353,50.588 L146.614353,50.588 L146.614353,46.916 L159.228353,46.916 L160.180353,46.712 L162.900353,48.684 C161.302353,51.166 159.058353,54.022 156.644353,56.266 L156.644353,58.816 L163.444353,58.816 Z M193.678853,51.472 L193.678853,49.84 L191.672853,49.84 L191.672853,51.472 L193.678853,51.472 Z M193.678853,55.348 L193.678853,53.716 L191.672853,53.716 L191.672853,55.348 L193.678853,55.348 Z M182.662853,53.716 L182.662853,55.348 L184.668853,55.348 L184.668853,53.716 L182.662853,53.716 Z M182.662853,49.84 L182.662853,51.472 L184.668853,51.472 L184.668853,49.84 L182.662853,49.84 Z M189.122853,53.716 L187.218853,53.716 L187.218853,55.348 L189.122853,55.348 L189.122853,53.716 Z M187.218853,51.472 L189.122853,51.472 L189.122853,49.84 L187.218853,49.84 L187.218853,51.472 Z M197.044853,47.494 L197.044853,57.762 L179.398853,57.762 L179.398853,47.494 L184.090853,47.494 L184.090853,44.842 L187.218853,44.842 L187.218853,47.494 L189.122853,47.494 L189.122853,44.842 L192.250853,44.842 L192.250853,47.494 L197.044853,47.494 Z M178.276853,61.808 L178.276853,58.952 L198.098853,58.952 L198.098853,61.808 L178.276853,61.808 Z M179.262853,63.576 L176.780853,66.942 C176.236853,66.024 175.386853,64.8 174.536853,63.61 L174.536853,76.564 L170.898853,76.564 L170.898853,64.562 C169.946853,65.548 169.028853,66.432 168.076853,67.146 C167.838853,65.956 167.022853,63.712 166.546853,62.93 C169.402853,61.026 172.156853,57.694 173.856853,54.158 L167.294853,54.158 L167.294853,50.52 L171.850853,50.52 C171.272853,49.33 170.354853,47.936 169.470853,46.848 L172.496853,44.978 C173.618853,46.236 174.808853,48.004 175.352853,49.228 L173.482853,50.52 L175.794853,50.52 L176.508853,50.35 L178.548853,51.846 C177.698853,54.396 176.542853,56.878 175.114853,59.156 C176.440853,60.448 178.650853,62.862 179.262853,63.576 Z M190.992853,69.832 L185.416853,69.832 C185.892853,70.886 186.402853,72.076 186.708853,73.028 L189.734853,73.028 C190.210853,72.008 190.686853,70.818 190.992853,69.832 Z M183.784853,65.378 L183.784853,67.418 L192.522853,67.418 L192.522853,65.378 L183.784853,65.378 Z M193.066853,73.028 L198.438853,73.028 L198.438853,76.02 L177.868853,76.02 L177.868853,73.028 L183.240853,73.028 C182.934853,72.178 182.560853,71.26 182.254853,70.512 L184.430853,69.832 L180.486853,69.832 L180.486853,62.998 L195.990853,62.998 L195.990853,69.832 L192.012853,69.832 L194.664853,70.58 C194.154853,71.43 193.576853,72.246 193.066853,73.028 Z" id="獨家好禮"></path>
            </g>
        </g>
    </g>
</svg>