<?xml version="1.0" encoding="UTF-8"?>
<svg width="250px" height="34px" viewBox="0 0 250 34" version="1.1" xmlns="http://www.w3.org/2000/svg" xmlns:xlink="http://www.w3.org/1999/xlink">
    <!-- Generator: Sketch 55.2 (78181) - https://sketchapp.com -->
    <title>週年慶主打特惠</title>
    <desc>Created with Sketch.</desc>
    <g id="Drunk-Elephant_美麗台_phone" stroke="none" stroke-width="1" fill="none" fill-rule="evenodd">
        <g id="Phone_index_美麗台-Copy" transform="translate(-80.000000, -2813.000000)" fill="#FF27C8" fill-rule="nonzero">
            <path d="M99.6846666,2818.588 L95.4346666,2818.588 L95.4346666,2820.526 L99.6846666,2820.526 L99.6846666,2818.588 Z M107.470667,2820.526 L107.470667,2818.588 L103.016667,2818.588 L103.016667,2820.526 L107.470667,2820.526 Z M103.016667,2825.354 L107.470667,2825.354 L107.470667,2823.246 L103.016667,2823.246 L103.016667,2825.354 Z M95.4346666,2825.354 L99.6846666,2825.354 L99.6846666,2823.246 L95.4346666,2823.246 L95.4346666,2825.354 Z M102.846667,2834.874 L102.846667,2831.916 L99.4466666,2831.916 L99.4466666,2834.874 L102.846667,2834.874 Z M107.470667,2828.074 L95.3666666,2828.074 C95.1626666,2832.154 94.6526666,2836.846 93.3266666,2840.212 C92.6126666,2839.634 90.9466666,2838.716 90.0286666,2838.342 C91.6606666,2834.194 91.7626666,2828.312 91.7626666,2824.096 L91.7626666,2815.324 L111.210667,2815.324 L111.210667,2836.778 C111.210667,2838.546 110.870667,2839.43 109.748667,2840.042 C108.694667,2840.62 107.130667,2840.654 104.886667,2840.654 C104.750667,2839.702 104.342667,2838.274 103.866667,2837.322 L96.7266666,2837.322 L96.7266666,2829.468 L105.702667,2829.468 L105.702667,2837.322 L106.892667,2837.322 C107.334667,2837.322 107.470667,2837.152 107.470667,2836.71 L107.470667,2828.074 Z M89.0086666,2820.016 L85.2006666,2821.308 C84.7586666,2819.778 83.9086666,2817.364 83.3306666,2815.596 L87.0026666,2814.508 C87.6486666,2816.31 88.4986666,2818.554 89.0086666,2820.016 Z M89.1786666,2829.23 L90.8786666,2829.978 C90.1646666,2833.14 89.1446666,2836.302 87.8526666,2838.886 C88.4306666,2839.226 89.0766666,2839.736 89.9946666,2840.28 C92.3066666,2841.674 95.4686666,2841.878 99.4466666,2841.878 C103.356667,2841.878 109.442667,2841.538 113.216667,2840.994 C112.740667,2842.082 112.094667,2844.054 112.026667,2845.142 C109.204667,2845.312 103.254667,2845.55 99.2766666,2845.55 C94.7546666,2845.55 91.9326666,2845.176 89.4846666,2843.748 C88.0566666,2842.966 86.8326666,2841.844 86.1866666,2841.844 C85.4046666,2841.844 84.2486666,2844.156 83.4666666,2846.094 L80.7806666,2842.218 C81.8346666,2840.926 82.9906666,2839.872 83.9766666,2839.158 C84.9286666,2837.424 85.7446666,2835.146 86.3566666,2832.868 L82.5146666,2832.868 C83.2966666,2830.964 84.1806666,2828.278 85.0306666,2825.728 L81.4266666,2825.728 L81.4266666,2822.124 L89.7906666,2822.124 C89.0766666,2824.436 88.1926666,2827.088 87.3426666,2829.4 L88.6006666,2829.4 L89.1786666,2829.23 Z M127.213333,2834.84 L133.095333,2834.84 L133.095333,2829.672 L127.213333,2829.672 L127.213333,2834.84 Z M148.905333,2834.84 L148.905333,2838.716 L137.277333,2838.716 L137.277333,2845.992 L133.095333,2845.992 L133.095333,2838.716 L117.795333,2838.716 L117.795333,2834.84 L123.167333,2834.84 L123.167333,2825.932 L133.095333,2825.932 L133.095333,2821.852 L125.819333,2821.852 C124.425333,2824.266 122.793333,2826.442 121.195333,2828.04 C120.413333,2827.36 118.679333,2826 117.693333,2825.422 C120.753333,2822.838 123.371333,2818.486 124.833333,2814.1 L128.947333,2815.154 C128.641333,2816.106 128.267333,2817.024 127.825333,2817.942 L147.035333,2817.942 L147.035333,2821.852 L137.277333,2821.852 L137.277333,2825.932 L146.253333,2825.932 L146.253333,2829.672 L137.277333,2829.672 L137.277333,2834.84 L148.905333,2834.84 Z M175.652,2839.056 L167.628,2839.056 C168.988,2839.702 170.484,2840.28 172.116,2840.756 C173.442,2840.246 174.632,2839.702 175.652,2839.056 Z M169.804,2833.582 L172.524,2833.582 C171.47,2832.936 169.77,2831.95 168.478,2831.338 L168.478,2832.766 C168.478,2833.48 168.716,2833.582 169.804,2833.582 Z M164.364,2819.234 L159.978,2819.234 L159.978,2820.628 L164.364,2820.628 L164.364,2819.234 Z M172.082,2820.628 L172.082,2819.234 L167.866,2819.234 L167.866,2820.628 L172.082,2820.628 Z M179.902,2822.974 L175.652,2822.974 L175.652,2824.436 L179.902,2824.436 L179.902,2822.974 Z M167.866,2822.974 L167.866,2824.436 L172.082,2824.436 L172.082,2822.974 L167.866,2822.974 Z M164.364,2824.436 L164.364,2822.974 L159.978,2822.974 L159.978,2824.436 L164.364,2824.436 Z M179.052,2836.744 L181.296,2838.172 C180.14,2839.6 178.542,2840.824 176.706,2841.776 C179.324,2842.252 182.146,2842.558 185.104,2842.728 C184.39,2843.51 183.574,2844.904 183.166,2845.856 C178.984,2845.516 175.142,2844.87 171.708,2843.884 C168.036,2845.006 163.922,2845.72 159.944,2846.128 C159.638,2845.312 158.958,2844.122 158.414,2843.408 C161.338,2843.17 164.364,2842.762 167.118,2842.15 C166.2,2841.708 165.282,2841.232 164.398,2840.722 C163.412,2841.266 162.29,2841.776 161.066,2842.286 C160.658,2841.538 159.672,2840.484 158.992,2839.974 C160.012,2839.634 160.93,2839.26 161.814,2838.852 C161.1,2838.24 160.42,2837.628 159.842,2836.914 L162.8,2835.656 C163.344,2836.234 163.956,2836.812 164.704,2837.356 C165.588,2836.778 166.37,2836.2 166.982,2835.656 C165.69,2835.316 165.316,2834.466 165.316,2832.834 L165.316,2831.304 L168.376,2831.304 L169.226,2830.318 L159.876,2830.318 C159.842,2831.474 159.74,2832.63 159.638,2833.82 C160.556,2832.97 161.61,2831.542 162.29,2830.454 L164.942,2831.95 C164.194,2833.072 163.174,2834.602 162.256,2835.622 L159.638,2833.888 C159.196,2838.104 158.278,2842.558 156.408,2845.856 C155.762,2845.176 154.164,2844.02 153.314,2843.612 C156.068,2838.614 156.306,2831.44 156.306,2826.306 L156.306,2816.208 L169.056,2816.208 C168.92,2815.63 168.75,2815.052 168.614,2814.542 L172.626,2813.828 C172.898,2814.508 173.204,2815.392 173.442,2816.208 L184.832,2816.208 L184.832,2819.234 L175.652,2819.234 L175.652,2820.628 L183.642,2820.628 L183.642,2826.782 L159.978,2826.782 L159.978,2827.87 L182.486,2827.87 L183.064,2827.734 L185.682,2828.312 C185.07,2830.012 184.254,2831.984 183.54,2833.242 L180.344,2832.562 C180.65,2831.95 180.99,2831.168 181.296,2830.318 L172.116,2830.318 C172.966,2830.726 173.748,2831.134 174.258,2831.474 L172.694,2833.582 L173.408,2833.582 C174.19,2833.582 174.36,2833.378 174.496,2832.154 C175.04,2832.494 176.026,2832.8 176.808,2832.97 L175.856,2831.95 L178.168,2830.488 C179.392,2831.678 181.058,2833.31 181.874,2834.364 L179.426,2836.03 C178.882,2835.282 177.964,2834.262 177.08,2833.276 C176.774,2835.282 175.924,2835.86 173.85,2835.86 L170.96,2835.86 L169.94,2836.88 L178.44,2836.88 L179.052,2836.744 Z M208.110667,2840.926 L221.166667,2840.926 L221.166667,2844.904 L190.736667,2844.904 L190.736667,2840.926 L203.656667,2840.926 L203.656667,2834.364 L193.966667,2834.364 L193.966667,2830.454 L203.656667,2830.454 L203.656667,2824.572 L192.164667,2824.572 L192.164667,2820.628 L205.764667,2820.628 C204.336667,2819.234 202.296667,2817.67 200.664667,2816.48 L203.996667,2814.168 C206.172667,2815.562 209.096667,2817.738 210.524667,2819.302 L208.722667,2820.628 L219.500667,2820.628 L219.500667,2824.572 L208.110667,2824.572 L208.110667,2830.454 L217.868667,2830.454 L217.868667,2834.364 L208.110667,2834.364 L208.110667,2840.926 Z M239.073333,2828.346 L239.583333,2832.188 C238.121333,2832.596 236.659333,2833.004 235.197333,2833.378 L235.197333,2841.266 C235.197333,2843.272 234.789333,2844.292 233.633333,2844.904 C232.477333,2845.55 230.845333,2845.652 228.397333,2845.652 C228.295333,2844.598 227.717333,2842.932 227.207333,2841.844 C228.567333,2841.912 229.995333,2841.912 230.437333,2841.912 C230.913333,2841.912 231.083333,2841.742 231.083333,2841.232 L231.083333,2834.5 L227.445333,2835.418 L226.323333,2831.406 C227.683333,2831.134 229.349333,2830.76 231.083333,2830.318 L231.083333,2824.47 L226.697333,2824.47 L226.697333,2820.662 L231.083333,2820.662 L231.083333,2814.236 L235.197333,2814.236 L235.197333,2820.662 L239.039333,2820.662 L239.039333,2824.47 L235.197333,2824.47 L235.197333,2829.332 L239.073333,2828.346 Z M257.977333,2816.786 L257.977333,2820.832 L252.571333,2820.832 L252.571333,2840.654 C252.571333,2843.034 252.027333,2844.224 250.463333,2844.938 C248.933333,2845.686 246.655333,2845.754 243.493333,2845.754 C243.323333,2844.496 242.541333,2842.49 241.895333,2841.334 C244.003333,2841.47 246.553333,2841.436 247.233333,2841.436 C247.913333,2841.436 248.185333,2841.232 248.185333,2840.586 L248.185333,2820.832 L239.583333,2820.832 L239.583333,2816.786 L257.977333,2816.786 Z M282.412,2823.79 L282.412,2820.9 L276.02,2820.9 L276.02,2817.228 L282.412,2817.228 L282.412,2814.202 L286.424,2814.202 L286.424,2817.228 L293.224,2817.228 L293.224,2820.9 L286.424,2820.9 L286.424,2823.79 L292.068,2823.79 L292.068,2827.53 L277.278,2827.53 L277.278,2823.79 L282.412,2823.79 Z M274.966,2830.658 L275.408,2834.398 L272.144,2835.248 L272.144,2845.958 L268.302,2845.958 L268.302,2836.2 L263.814,2837.356 L262.828,2833.242 C264.324,2832.97 266.262,2832.562 268.302,2832.154 L268.302,2824.674 L266.33,2824.674 C265.99,2826.374 265.582,2827.972 265.106,2829.196 C264.426,2828.89 262.998,2828.346 262.25,2828.108 C263.338,2825.354 263.984,2820.968 264.29,2816.82 L267.35,2817.296 C267.248,2818.486 267.112,2819.642 266.942,2820.832 L268.302,2820.832 L268.302,2814.236 L272.144,2814.236 L272.144,2820.832 L275.068,2820.832 L275.068,2824.674 L272.144,2824.674 L272.144,2831.304 L274.966,2830.658 Z M277.448,2836.268 L280.44,2834.432 C281.902,2835.928 283.704,2838.104 284.52,2839.532 L281.324,2841.606 C280.61,2840.178 278.91,2837.9 277.448,2836.268 Z M293.972,2830.624 L293.972,2834.33 L290.708,2834.33 L290.708,2841.436 C290.708,2843.442 290.334,2844.496 288.974,2845.142 C287.682,2845.754 285.778,2845.856 283.296,2845.856 C283.126,2844.666 282.582,2843 282.072,2841.844 C283.67,2841.912 285.506,2841.912 286.05,2841.912 C286.56,2841.912 286.696,2841.776 286.696,2841.334 L286.696,2834.33 L275.884,2834.33 L275.884,2830.624 L286.696,2830.624 L286.696,2828.244 L290.708,2828.244 L290.708,2830.624 L293.972,2830.624 Z M322.826667,2822.838 L316.468667,2822.838 L316.468667,2824.402 L322.826667,2824.402 L322.826667,2822.838 Z M316.468667,2832.46 L320.718667,2832.426 C320.174667,2832.12 319.664667,2831.848 319.154667,2831.576 L320.684667,2830.556 L316.468667,2830.556 L316.468667,2832.46 Z M316.468667,2826.612 L316.468667,2828.176 L322.826667,2828.176 L322.826667,2826.612 L316.468667,2826.612 Z M305.792667,2828.176 L312.286667,2828.176 L312.286667,2826.612 L305.792667,2826.612 L305.792667,2828.176 Z M305.792667,2822.838 L305.792667,2824.402 L312.286667,2824.402 L312.286667,2822.838 L305.792667,2822.838 Z M312.286667,2820.492 L312.286667,2818.996 L299.944667,2818.996 L299.944667,2815.834 L312.286667,2815.834 L312.286667,2814.202 L316.468667,2814.202 L316.468667,2815.834 L329.150667,2815.834 L329.150667,2818.996 L316.468667,2818.996 L316.468667,2820.492 L326.838667,2820.492 L326.838667,2830.556 L323.472667,2830.556 C325.750667,2831.814 328.096667,2833.514 329.422667,2834.772 L326.600667,2836.948 C326.158667,2836.472 325.614667,2835.996 325.002667,2835.452 C321.772667,2835.52 318.440667,2835.588 315.244667,2835.656 C316.808667,2836.676 318.440667,2837.934 319.324667,2838.954 L316.570667,2841.266 C315.550667,2840.042 313.340667,2838.274 311.504667,2837.084 L313.272667,2835.69 C308.342667,2835.758 303.786667,2835.826 300.250667,2835.86 L300.080667,2832.46 C303.344667,2832.494 307.628667,2832.494 312.286667,2832.46 L312.286667,2830.556 L301.984667,2830.556 L301.984667,2820.492 L312.286667,2820.492 Z M302.426667,2844.972 L298.924667,2843 C300.250667,2841.436 301.406667,2839.022 302.052667,2836.948 L305.554667,2838.376 C304.806667,2840.552 303.752667,2843.204 302.426667,2844.972 Z M312.694667,2842.15 L318.610667,2842.15 C320.106667,2842.15 320.412667,2841.742 320.582667,2839.226 C321.432667,2839.736 322.996667,2840.28 324.084667,2840.484 C323.608667,2844.428 322.486667,2845.414 318.950667,2845.414 L312.320667,2845.414 C307.594667,2845.414 306.370667,2844.428 306.370667,2841.13 L306.370667,2837.254 L310.382667,2837.254 L310.382667,2841.096 C310.382667,2842.014 310.722667,2842.15 312.694667,2842.15 Z M322.894667,2838.24 L326.396667,2837.118 C327.960667,2839.158 329.456667,2841.81 329.932667,2843.748 L326.192667,2844.938 C325.784667,2843.17 324.390667,2840.348 322.894667,2838.24 Z" id="週年慶主打特惠"></path>
        </g>
    </g>
</svg>