<?xml version="1.0" encoding="UTF-8"?>
<svg width="412px" height="55px" viewBox="0 0 412 55" version="1.1" xmlns="http://www.w3.org/2000/svg" xmlns:xlink="http://www.w3.org/1999/xlink">
    <!-- Generator: Sketch 55.2 (78181) - https://sketchapp.com -->
    <title>週年慶主打特惠</title>
    <desc>Created with Sketch.</desc>
    <g id="Drunk-Elephant_美麗台_1440" stroke="none" stroke-width="1" fill="none" fill-rule="evenodd">
        <g id="Drunkelephant_index_美麗台-Copy" transform="translate(-751.000000, -4643.000000)" fill="#FF27C8" fill-rule="nonzero">
            <g id="Group-17" transform="translate(0.000000, 4556.000000)">
                <path d="M782.831541,95.792 L775.831541,95.792 L775.831541,98.984 L782.831541,98.984 L782.831541,95.792 Z M795.655541,98.984 L795.655541,95.792 L788.319541,95.792 L788.319541,98.984 L795.655541,98.984 Z M788.319541,106.936 L795.655541,106.936 L795.655541,103.464 L788.319541,103.464 L788.319541,106.936 Z M775.831541,106.936 L782.831541,106.936 L782.831541,103.464 L775.831541,103.464 L775.831541,106.936 Z M788.039541,122.616 L788.039541,117.744 L782.439541,117.744 L782.439541,122.616 L788.039541,122.616 Z M795.655541,111.416 L775.719541,111.416 C775.383541,118.136 774.543541,125.864 772.359541,131.408 C771.183541,130.456 768.439541,128.944 766.927541,128.328 C769.615541,121.496 769.783541,111.808 769.783541,104.864 L769.783541,90.416 L801.815541,90.416 L801.815541,125.752 C801.815541,128.664 801.255541,130.12 799.407541,131.128 C797.671541,132.08 795.095541,132.136 791.399541,132.136 C791.175541,130.568 790.503541,128.216 789.719541,126.648 L777.959541,126.648 L777.959541,113.712 L792.743541,113.712 L792.743541,126.648 L794.703541,126.648 C795.431541,126.648 795.655541,126.368 795.655541,125.64 L795.655541,111.416 Z M765.247541,98.144 L758.975541,100.272 C758.247541,97.752 756.847541,93.776 755.895541,90.864 L761.943541,89.072 C763.007541,92.04 764.407541,95.736 765.247541,98.144 Z M765.527541,113.32 L768.327541,114.552 C767.151541,119.76 765.471541,124.968 763.343541,129.224 C764.295541,129.784 765.359541,130.624 766.871541,131.52 C770.679541,133.816 775.887541,134.152 782.439541,134.152 C788.879541,134.152 798.903541,133.592 805.119541,132.696 C804.335541,134.488 803.271541,137.736 803.159541,139.528 C798.511541,139.808 788.711541,140.2 782.159541,140.2 C774.711541,140.2 770.063541,139.584 766.031541,137.232 C763.679541,135.944 761.663541,134.096 760.599541,134.096 C759.311541,134.096 757.407541,137.904 756.119541,141.096 L751.695541,134.712 C753.431541,132.584 755.335541,130.848 756.959541,129.672 C758.527541,126.816 759.871541,123.064 760.879541,119.312 L754.551541,119.312 C755.839541,116.176 757.295541,111.752 758.695541,107.552 L752.759541,107.552 L752.759541,101.616 L766.535541,101.616 C765.359541,105.424 763.903541,109.792 762.503541,113.6 L764.575541,113.6 L765.527541,113.32 Z M828.172874,122.56 L837.860874,122.56 L837.860874,114.048 L828.172874,114.048 L828.172874,122.56 Z M863.900874,122.56 L863.900874,128.944 L844.748874,128.944 L844.748874,140.928 L837.860874,140.928 L837.860874,128.944 L812.660874,128.944 L812.660874,122.56 L821.508874,122.56 L821.508874,107.888 L837.860874,107.888 L837.860874,101.168 L825.876874,101.168 C823.580874,105.144 820.892874,108.728 818.260874,111.36 C816.972874,110.24 814.116874,108 812.492874,107.048 C817.532874,102.792 821.844874,95.624 824.252874,88.4 L831.028874,90.136 C830.524874,91.704 829.908874,93.216 829.180874,94.728 L860.820874,94.728 L860.820874,101.168 L844.748874,101.168 L844.748874,107.888 L859.532874,107.888 L859.532874,114.048 L844.748874,114.048 L844.748874,122.56 L863.900874,122.56 Z M907.954207,129.504 L894.738207,129.504 C896.978207,130.568 899.442207,131.52 902.130207,132.304 C904.314207,131.464 906.274207,130.568 907.954207,129.504 Z M898.322207,120.488 L902.802207,120.488 C901.066207,119.424 898.266207,117.8 896.138207,116.792 L896.138207,119.144 C896.138207,120.32 896.530207,120.488 898.322207,120.488 Z M889.362207,96.856 L882.138207,96.856 L882.138207,99.152 L889.362207,99.152 L889.362207,96.856 Z M902.074207,99.152 L902.074207,96.856 L895.130207,96.856 L895.130207,99.152 L902.074207,99.152 Z M914.954207,103.016 L907.954207,103.016 L907.954207,105.424 L914.954207,105.424 L914.954207,103.016 Z M895.130207,103.016 L895.130207,105.424 L902.074207,105.424 L902.074207,103.016 L895.130207,103.016 Z M889.362207,105.424 L889.362207,103.016 L882.138207,103.016 L882.138207,105.424 L889.362207,105.424 Z M913.554207,125.696 L917.250207,128.048 C915.346207,130.4 912.714207,132.416 909.690207,133.984 C914.002207,134.768 918.650207,135.272 923.522207,135.552 C922.346207,136.84 921.002207,139.136 920.330207,140.704 C913.442207,140.144 907.114207,139.08 901.458207,137.456 C895.410207,139.304 888.634207,140.48 882.082207,141.152 C881.578207,139.808 880.458207,137.848 879.562207,136.672 C884.378207,136.28 889.362207,135.608 893.898207,134.6 C892.386207,133.872 890.874207,133.088 889.418207,132.248 C887.794207,133.144 885.946207,133.984 883.930207,134.824 C883.258207,133.592 881.634207,131.856 880.514207,131.016 C882.194207,130.456 883.706207,129.84 885.162207,129.168 C883.986207,128.16 882.866207,127.152 881.914207,125.976 L886.786207,123.904 C887.682207,124.856 888.690207,125.808 889.922207,126.704 C891.378207,125.752 892.666207,124.8 893.674207,123.904 C891.546207,123.344 890.930207,121.944 890.930207,119.256 L890.930207,116.736 L895.970207,116.736 L897.370207,115.112 L881.970207,115.112 C881.914207,117.016 881.746207,118.92 881.578207,120.88 C883.090207,119.48 884.826207,117.128 885.946207,115.336 L890.314207,117.8 C889.082207,119.648 887.402207,122.168 885.890207,123.848 L881.578207,120.992 C880.850207,127.936 879.338207,135.272 876.258207,140.704 C875.194207,139.584 872.562207,137.68 871.162207,137.008 C875.698207,128.776 876.090207,116.96 876.090207,108.504 L876.090207,91.872 L897.090207,91.872 C896.866207,90.92 896.586207,89.968 896.362207,89.128 L902.970207,87.952 C903.418207,89.072 903.922207,90.528 904.314207,91.872 L923.074207,91.872 L923.074207,96.856 L907.954207,96.856 L907.954207,99.152 L921.114207,99.152 L921.114207,109.288 L882.138207,109.288 L882.138207,111.08 L919.210207,111.08 L920.162207,110.856 L924.474207,111.808 C923.466207,114.608 922.122207,117.856 920.946207,119.928 L915.682207,118.808 C916.186207,117.8 916.746207,116.512 917.250207,115.112 L902.130207,115.112 C903.530207,115.784 904.818207,116.456 905.658207,117.016 L903.082207,120.488 L904.258207,120.488 C905.546207,120.488 905.826207,120.152 906.050207,118.136 C906.946207,118.696 908.570207,119.2 909.858207,119.48 L908.290207,117.8 L912.098207,115.392 C914.114207,117.352 916.858207,120.04 918.202207,121.776 L914.170207,124.52 C913.274207,123.288 911.762207,121.608 910.306207,119.984 C909.802207,123.288 908.402207,124.24 904.986207,124.24 L900.226207,124.24 L898.546207,125.92 L912.546207,125.92 L913.554207,125.696 Z M961.41554,132.584 L982.91954,132.584 L982.91954,139.136 L932.79954,139.136 L932.79954,132.584 L954.07954,132.584 L954.07954,121.776 L938.11954,121.776 L938.11954,115.336 L954.07954,115.336 L954.07954,105.648 L935.15154,105.648 L935.15154,99.152 L957.55154,99.152 C955.19954,96.856 951.83954,94.28 949.15154,92.32 L954.63954,88.512 C958.22354,90.808 963.03954,94.392 965.39154,96.968 L962.42354,99.152 L980.17554,99.152 L980.17554,105.648 L961.41554,105.648 L961.41554,115.336 L977.48754,115.336 L977.48754,121.776 L961.41554,121.776 L961.41554,132.584 Z M1012.41287,111.864 L1013.25287,118.192 C1010.84487,118.864 1008.43687,119.536 1006.02887,120.152 L1006.02887,133.144 C1006.02887,136.448 1005.35687,138.128 1003.45287,139.136 C1001.54887,140.2 998.860874,140.368 994.828874,140.368 C994.660874,138.632 993.708874,135.888 992.868874,134.096 C995.108874,134.208 997.460874,134.208 998.188874,134.208 C998.972874,134.208 999.252874,133.928 999.252874,133.088 L999.252874,122 L993.260874,123.512 L991.412874,116.904 C993.652874,116.456 996.396874,115.84 999.252874,115.112 L999.252874,105.48 L992.028874,105.48 L992.028874,99.208 L999.252874,99.208 L999.252874,88.624 L1006.02887,88.624 L1006.02887,99.208 L1012.35687,99.208 L1012.35687,105.48 L1006.02887,105.48 L1006.02887,113.488 L1012.41287,111.864 Z M1043.54887,92.824 L1043.54887,99.488 L1034.64487,99.488 L1034.64487,132.136 C1034.64487,136.056 1033.74887,138.016 1031.17287,139.192 C1028.65287,140.424 1024.90087,140.536 1019.69287,140.536 C1019.41287,138.464 1018.12487,135.16 1017.06087,133.256 C1020.53287,133.48 1024.73287,133.424 1025.85287,133.424 C1026.97287,133.424 1027.42087,133.088 1027.42087,132.024 L1027.42087,99.488 L1013.25287,99.488 L1013.25287,92.824 L1043.54887,92.824 Z M1083.79421,104.36 L1083.79421,99.6 L1073.26621,99.6 L1073.26621,93.552 L1083.79421,93.552 L1083.79421,88.568 L1090.40221,88.568 L1090.40221,93.552 L1101.60221,93.552 L1101.60221,99.6 L1090.40221,99.6 L1090.40221,104.36 L1099.69821,104.36 L1099.69821,110.52 L1075.33821,110.52 L1075.33821,104.36 L1083.79421,104.36 Z M1071.53021,115.672 L1072.25821,121.832 L1066.88221,123.232 L1066.88221,140.872 L1060.55421,140.872 L1060.55421,124.8 L1053.16221,126.704 L1051.53821,119.928 C1054.00221,119.48 1057.19421,118.808 1060.55421,118.136 L1060.55421,105.816 L1057.30621,105.816 C1056.74621,108.616 1056.07421,111.248 1055.29021,113.264 C1054.17021,112.76 1051.81821,111.864 1050.58621,111.472 C1052.37821,106.936 1053.44221,99.712 1053.94621,92.88 L1058.98621,93.664 C1058.81821,95.624 1058.59421,97.528 1058.31421,99.488 L1060.55421,99.488 L1060.55421,88.624 L1066.88221,88.624 L1066.88221,99.488 L1071.69821,99.488 L1071.69821,105.816 L1066.88221,105.816 L1066.88221,116.736 L1071.53021,115.672 Z M1075.61821,124.912 L1080.54621,121.888 C1082.95421,124.352 1085.92221,127.936 1087.26621,130.288 L1082.00221,133.704 C1080.82621,131.352 1078.02621,127.6 1075.61821,124.912 Z M1102.83421,115.616 L1102.83421,121.72 L1097.45821,121.72 L1097.45821,133.424 C1097.45821,136.728 1096.84221,138.464 1094.60221,139.528 C1092.47421,140.536 1089.33821,140.704 1085.25021,140.704 C1084.97021,138.744 1084.07421,136 1083.23421,134.096 C1085.86621,134.208 1088.89021,134.208 1089.78621,134.208 C1090.62621,134.208 1090.85021,133.984 1090.85021,133.256 L1090.85021,121.72 L1073.04221,121.72 L1073.04221,115.616 L1090.85021,115.616 L1090.85021,111.696 L1097.45821,111.696 L1097.45821,115.616 L1102.83421,115.616 Z M1150.35954,102.792 L1139.88754,102.792 L1139.88754,105.368 L1150.35954,105.368 L1150.35954,102.792 Z M1139.88754,118.64 L1146.88754,118.584 C1145.99154,118.08 1145.15154,117.632 1144.31154,117.184 L1146.83154,115.504 L1139.88754,115.504 L1139.88754,118.64 Z M1139.88754,109.008 L1139.88754,111.584 L1150.35954,111.584 L1150.35954,109.008 L1139.88754,109.008 Z M1122.30354,111.584 L1132.99954,111.584 L1132.99954,109.008 L1122.30354,109.008 L1122.30354,111.584 Z M1122.30354,102.792 L1122.30354,105.368 L1132.99954,105.368 L1132.99954,102.792 L1122.30354,102.792 Z M1132.99954,98.928 L1132.99954,96.464 L1112.67154,96.464 L1112.67154,91.256 L1132.99954,91.256 L1132.99954,88.568 L1139.88754,88.568 L1139.88754,91.256 L1160.77554,91.256 L1160.77554,96.464 L1139.88754,96.464 L1139.88754,98.928 L1156.96754,98.928 L1156.96754,115.504 L1151.42354,115.504 C1155.17554,117.576 1159.03954,120.376 1161.22354,122.448 L1156.57554,126.032 C1155.84754,125.248 1154.95154,124.464 1153.94354,123.568 C1148.62354,123.68 1143.13554,123.792 1137.87154,123.904 C1140.44754,125.584 1143.13554,127.656 1144.59154,129.336 L1140.05554,133.144 C1138.37554,131.128 1134.73554,128.216 1131.71154,126.256 L1134.62354,123.96 C1126.50354,124.072 1118.99954,124.184 1113.17554,124.24 L1112.89554,118.64 C1118.27154,118.696 1125.32754,118.696 1132.99954,118.64 L1132.99954,115.504 L1116.03154,115.504 L1116.03154,98.928 L1132.99954,98.928 Z M1116.75954,139.248 L1110.99154,136 C1113.17554,133.424 1115.07954,129.448 1116.14354,126.032 L1121.91154,128.384 C1120.67954,131.968 1118.94354,136.336 1116.75954,139.248 Z M1133.67154,134.6 L1143.41554,134.6 C1145.87954,134.6 1146.38354,133.928 1146.66354,129.784 C1148.06354,130.624 1150.63954,131.52 1152.43154,131.856 C1151.64754,138.352 1149.79954,139.976 1143.97554,139.976 L1133.05554,139.976 C1125.27154,139.976 1123.25554,138.352 1123.25554,132.92 L1123.25554,126.536 L1129.86354,126.536 L1129.86354,132.864 C1129.86354,134.376 1130.42354,134.6 1133.67154,134.6 Z M1150.47154,128.16 L1156.23954,126.312 C1158.81554,129.672 1161.27954,134.04 1162.06354,137.232 L1155.90354,139.192 C1155.23154,136.28 1152.93554,131.632 1150.47154,128.16 Z" id="週年慶主打特惠"></path>
            </g>
        </g>
    </g>
</svg>